<svg xmlns="http://www.w3.org/2000/svg" width="104" height="104" viewBox="0 0 104 104" role="img" aria-label="ArkTS">
  <title>ArkTS</title>
  <rect x="0.5" y="0.5" width="103" height="103" rx="8" fill="#f7f6f2" stroke="#d6d3c8"/>
  <g transform="translate(30.0,18) scale(1.83333)"><path fill="#000000" d="M1.861 0H3.59v3.548h3.861V0H9.19v8.883H7.458V5.136H3.59v3.746H1.858Zm8.248 8.883ZM13.854 0h1.706l2.809 4.7h.1L21.278 0h1.719v8.883h-1.719v-4.38l.1-1.489h-.1l-2.334 3.983h-1.039l-2.347-3.983h-.1l.1 1.489v4.38h-1.706Zm4.702 21.648a4.082 4.082 0 0 1-1.154-.161 3.417 3.417 0 0 1-1.01-.484 3.5 3.5 0 0 1-.8-.782 3.817 3.817 0 0 1-.538-1.092l1.666-.62a2.411 2.411 0 0 0 .643 1.116 1.683 1.683 0 0 0 1.207.434 2.173 2.173 0 0 0 .524-.062 1.749 1.749 0 0 0 .459-.2 1.02 1.02 0 0 0 .328-.335.88.88 0 0 0 .118-.459 1.052 1.052 0 0 0-.092-.447 1.031 1.031 0 0 0-.315-.373 2.538 2.538 0 0 0-.564-.335 8.135 8.135 0 0 0-.852-.335l-.577-.2a4.753 4.753 0 0 1-.774-.335 3.44 3.44 0 0 1-.7-.509 2.662 2.662 0 0 1-.525-.695 2.093 2.093 0 0 1-.2-.918 2.248 2.248 0 0 1 .21-.968 2.433 2.433 0 0 1 .616-.794 2.87 2.87 0 0 1 .957-.533 3.726 3.726 0 0 1 1.246-.2 3.57 3.57 0 0 1 1.22.186 2.783 2.783 0 0 1 .879.459 2.468 2.468 0 0 1 .59.608 2.9 2.9 0 0 1 .328.633l-1.56.62a1.55 1.55 0 0 0-.485-.67 1.387 1.387 0 0 0-.944-.3 1.655 1.655 0 0 0-.957.261.754.754 0 0 0-.38.658.843.843 0 0 0 .367.682 4.232 4.232 0 0 0 1.167.534l.59.186a6.271 6.271 0 0 1 1.023.434 2.948 2.948 0 0 1 .8.57 2.191 2.191 0 0 1 .511.769 2.44 2.44 0 0 1 .183.98 2.317 2.317 0 0 1-.3 1.2 2.559 2.559 0 0 1-.747.819 3.361 3.361 0 0 1-1.036.484 4.184 4.184 0 0 1-1.128.161Zm-13.028 0a4.441 4.441 0 0 1-3.23-1.34 4.757 4.757 0 0 1-.956-1.476 4.912 4.912 0 0 1-.339-1.824 4.813 4.813 0 0 1 .339-1.811 4.569 4.569 0 0 1 .956-1.477 4.38 4.38 0 0 1 1.427-.992 4.5 4.5 0 0 1 1.8-.36 4.417 4.417 0 0 1 1.79.36 4.343 4.343 0 0 1 1.44.992 4.418 4.418 0 0 1 .944 1.477 4.67 4.67 0 0 1 .351 1.811 4.765 4.765 0 0 1-.351 1.824 4.589 4.589 0 0 1-.944 1.476 4.495 4.495 0 0 1-3.23 1.34Zm0-1.588a2.822 2.822 0 0 0 1.125-.223 2.761 2.761 0 0 0 .92-.621 2.723 2.723 0 0 0 .617-.955 3.321 3.321 0 0 0 .23-1.253 3.227 3.227 0 0 0-.23-1.24 2.7 2.7 0 0 0-.617-.968 2.759 2.759 0 0 0-.92-.62 2.821 2.821 0 0 0-1.125-.223 2.856 2.856 0 0 0-2.057.844 2.946 2.946 0 0 0-.617.968 3.388 3.388 0 0 0-.218 1.24 3.488 3.488 0 0 0 .218 1.253 2.972 2.972 0 0 0 .617.955 2.856 2.856 0 0 0 2.057.843Zm4.972 1.389Zm-8.269 1.039h6.5V24h-6.5Z"/></g>
  <path fill="#16150f" d="M33.41 82.58 36.73 74H38.88L42.21 82.58H40.34L39.69 80.81H35.84L35.18 82.58ZM36.36 79.39H39.16L38.33 77.14Q38.28 77.02 38.22 76.82Q38.15 76.63 38.07 76.39Q38 76.16 37.93 75.92Q37.85 75.69 37.79 75.5H37.72Q37.65 75.75 37.55 76.07Q37.44 76.39 37.34 76.68Q37.25 76.97 37.18 77.14ZM43.23 82.58V76H44.57L44.7 77.04H44.79Q44.92 76.72 45.11 76.45Q45.29 76.18 45.58 76.02Q45.88 75.85 46.29 75.85Q46.49 75.85 46.66 75.89Q46.83 75.93 46.92 75.97V77.46H46.43Q46.04 77.46 45.74 77.57Q45.44 77.67 45.24 77.9Q45.04 78.12 44.94 78.45Q44.84 78.79 44.84 79.23V82.58ZM47.99 82.58V73.54H49.6V78.78L51.94 76H53.83L51.61 78.56L53.95 82.58H52.1L50.57 79.72L49.6 80.65V82.58ZM57.32 82.58V75.47H54.57V74H61.8V75.47H59.04V82.58ZM66.47 82.73Q65.74 82.73 65.08 82.58Q64.42 82.42 63.91 82.09Q63.41 81.76 63.11 81.26Q62.82 80.76 62.82 80.07Q62.82 80 62.83 79.93Q62.83 79.85 62.84 79.82H64.56Q64.56 79.84 64.55 79.91Q64.55 79.98 64.55 80.03Q64.55 80.43 64.78 80.72Q65.01 81.01 65.45 81.15Q65.89 81.3 66.48 81.3Q66.87 81.3 67.18 81.26Q67.48 81.21 67.71 81.12Q67.93 81.03 68.08 80.91Q68.23 80.78 68.3 80.63Q68.37 80.47 68.37 80.28Q68.37 79.93 68.14 79.7Q67.92 79.47 67.54 79.32Q67.16 79.16 66.68 79.03Q66.2 78.9 65.7 78.77Q65.19 78.63 64.71 78.44Q64.24 78.25 63.86 77.97Q63.48 77.69 63.25 77.27Q63.03 76.85 63.03 76.26Q63.03 75.65 63.29 75.19Q63.55 74.73 64.03 74.44Q64.5 74.14 65.13 74Q65.76 73.85 66.5 73.85Q67.2 73.85 67.81 74Q68.42 74.14 68.89 74.45Q69.36 74.76 69.63 75.23Q69.89 75.7 69.89 76.35V76.5H68.2V76.39Q68.2 76.04 67.99 75.79Q67.78 75.54 67.4 75.41Q67.01 75.27 66.5 75.27Q65.95 75.27 65.57 75.37Q65.18 75.48 64.97 75.68Q64.77 75.88 64.77 76.16Q64.77 76.47 64.99 76.68Q65.22 76.88 65.6 77.03Q65.98 77.18 66.46 77.3Q66.93 77.42 67.44 77.56Q67.94 77.7 68.42 77.89Q68.9 78.07 69.28 78.35Q69.66 78.64 69.88 79.05Q70.11 79.46 70.11 80.04Q70.11 81.01 69.64 81.6Q69.17 82.2 68.34 82.46Q67.52 82.73 66.47 82.73Z"/>
</svg>
