<svg xmlns="http://www.w3.org/2000/svg" width="104" height="104" viewBox="0 0 104 104" role="img" aria-label="Astro">
  <title>Astro</title>
  <rect x="0.5" y="0.5" width="103" height="103" rx="8" fill="#f7f6f2" stroke="#d6d3c8"/>
  <g transform="translate(30.0,18) scale(1.83333)"><path fill="#BC52EE" d="M8.358 20.162c-1.186-1.07-1.532-3.316-1.038-4.944.856 1.026 2.043 1.352 3.272 1.535 1.897.283 3.76.177 5.522-.678.202-.098.388-.229.608-.36.166.473.209.95.151 1.437-.14 1.185-.738 2.1-1.688 2.794-.38.277-.782.525-1.175.787-1.205.804-1.531 1.747-1.078 3.119l.044.148a3.158 3.158 0 0 1-1.407-1.188 3.31 3.31 0 0 1-.544-1.815c-.004-.32-.004-.642-.048-.958-.106-.769-.472-1.113-1.161-1.133-.707-.02-1.267.411-1.415 1.09-.012.053-.028.104-.045.165h.002zm-5.961-4.445s3.24-1.575 6.49-1.575l2.451-7.565c.092-.366.36-.614.662-.614.302 0 .57.248.662.614l2.45 7.565c3.85 0 6.491 1.575 6.491 1.575L16.088.727C15.93.285 15.663 0 15.303 0H8.697c-.36 0-.615.285-.784.727l-5.516 14.99z"/></g>
  <path fill="#16150f" d="M35.77 82.58 39.09 74H41.24L44.57 82.58H42.71L42.05 80.81H38.2L37.54 82.58ZM38.72 79.39H41.52L40.7 77.14Q40.65 77.02 40.58 76.82Q40.51 76.63 40.44 76.39Q40.36 76.16 40.29 75.92Q40.21 75.69 40.15 75.5H40.09Q40.01 75.75 39.91 76.07Q39.81 76.39 39.71 76.68Q39.61 76.97 39.54 77.14ZM48.2 82.73Q47.5 82.73 46.95 82.58Q46.41 82.42 46.04 82.15Q45.66 81.88 45.47 81.51Q45.28 81.13 45.28 80.68Q45.28 80.62 45.29 80.58Q45.29 80.53 45.29 80.5H46.86Q46.86 80.52 46.86 80.55Q46.86 80.58 46.86 80.6Q46.88 80.93 47.07 81.13Q47.27 81.33 47.58 81.42Q47.9 81.5 48.26 81.5Q48.57 81.5 48.86 81.44Q49.15 81.38 49.34 81.22Q49.53 81.07 49.53 80.82Q49.53 80.51 49.29 80.34Q49.04 80.17 48.64 80.06Q48.24 79.95 47.78 79.83Q47.36 79.72 46.94 79.59Q46.52 79.45 46.19 79.24Q45.85 79.03 45.64 78.69Q45.43 78.35 45.43 77.84Q45.43 77.34 45.65 76.97Q45.87 76.6 46.25 76.35Q46.63 76.11 47.15 75.99Q47.67 75.86 48.28 75.86Q48.86 75.86 49.35 75.99Q49.84 76.11 50.2 76.34Q50.57 76.57 50.77 76.91Q50.97 77.24 50.97 77.65Q50.97 77.74 50.96 77.82Q50.96 77.91 50.96 77.92H49.4V77.83Q49.4 77.6 49.26 77.43Q49.11 77.27 48.85 77.17Q48.59 77.08 48.2 77.08Q47.92 77.08 47.7 77.12Q47.49 77.17 47.34 77.25Q47.2 77.34 47.12 77.45Q47.04 77.56 47.04 77.7Q47.04 77.93 47.23 78.06Q47.41 78.19 47.72 78.29Q48.03 78.39 48.4 78.49Q48.85 78.62 49.34 78.74Q49.82 78.87 50.23 79.07Q50.64 79.27 50.9 79.63Q51.16 80 51.16 80.61Q51.16 81.19 50.93 81.6Q50.71 82.01 50.31 82.26Q49.91 82.5 49.37 82.62Q48.83 82.73 48.2 82.73ZM54.41 82.73Q53.79 82.73 53.43 82.49Q53.06 82.26 52.91 81.88Q52.75 81.49 52.75 81.07V77.29H51.95V76H52.8L53.09 74.15H54.36V76H55.52V77.29H54.36V80.86Q54.36 81.14 54.5 81.29Q54.64 81.44 54.92 81.44H55.52V82.53Q55.39 82.58 55.2 82.62Q55.01 82.67 54.8 82.7Q54.59 82.73 54.41 82.73ZM56.79 82.58V76H58.14L58.26 77.04H58.35Q58.48 76.72 58.67 76.45Q58.86 76.18 59.15 76.02Q59.44 75.85 59.85 75.85Q60.05 75.85 60.22 75.89Q60.4 75.93 60.48 75.97V77.46H59.99Q59.6 77.46 59.3 77.57Q59.01 77.67 58.8 77.9Q58.6 78.12 58.5 78.45Q58.4 78.79 58.4 79.23V82.58ZM64.52 82.73Q63.45 82.73 62.71 82.36Q61.98 81.99 61.61 81.23Q61.23 80.46 61.23 79.29Q61.23 78.11 61.61 77.35Q61.98 76.59 62.71 76.22Q63.45 75.85 64.52 75.85Q65.62 75.85 66.34 76.22Q67.07 76.59 67.44 77.35Q67.82 78.11 67.82 79.29Q67.82 80.46 67.44 81.23Q67.07 81.99 66.34 82.36Q65.62 82.73 64.52 82.73ZM64.52 81.44Q65.11 81.44 65.47 81.22Q65.83 80.99 66 80.54Q66.16 80.08 66.16 79.4V79.18Q66.16 78.5 66 78.05Q65.83 77.59 65.47 77.37Q65.11 77.14 64.52 77.14Q63.94 77.14 63.58 77.37Q63.22 77.59 63.05 78.05Q62.89 78.5 62.89 79.18V79.4Q62.89 80.08 63.05 80.54Q63.22 80.99 63.58 81.22Q63.94 81.44 64.52 81.44Z"/>
</svg>
