<svg xmlns="http://www.w3.org/2000/svg" width="104" height="104" viewBox="0 0 104 104" role="img" aria-label="C">
  <title>C</title>
  <rect x="0.5" y="0.5" width="103" height="103" rx="8" fill="#f7f6f2" stroke="#d6d3c8"/>
  <g transform="translate(30.0,18) scale(1.83333)"><path fill="#A8B9CC" d="M16.5921 9.1962s-.354-3.298-3.627-3.39c-3.2741-.09-4.9552 2.474-4.9552 6.14 0 3.6651 1.858 6.5972 5.0451 6.5972 3.184 0 3.5381-3.665 3.5381-3.665l6.1041.365s.36 3.31-2.196 5.836c-2.552 2.5241-5.6901 2.9371-7.8762 2.9201-2.19-.017-5.2261.034-8.1602-2.97-2.938-3.0101-3.436-5.9302-3.436-8.8002 0-2.8701.556-6.6702 4.047-9.5502C7.444.72 9.849 0 12.254 0c10.0422 0 10.7172 9.2602 10.7172 9.2602z"/></g>
  <path fill="#16150f" d="M52.21 82.73Q50.89 82.73 49.95 82.26Q49.01 81.8 48.52 80.82Q48.02 79.83 48.02 78.29Q48.02 76.03 49.13 74.94Q50.23 73.85 52.21 73.85Q53.29 73.85 54.16 74.22Q55.02 74.59 55.52 75.33Q56.03 76.07 56.03 77.2H54.28Q54.28 76.58 54.02 76.16Q53.76 75.73 53.3 75.51Q52.84 75.29 52.24 75.29Q51.41 75.29 50.86 75.61Q50.32 75.94 50.06 76.57Q49.8 77.2 49.8 78.13V78.45Q49.8 79.39 50.06 80.03Q50.32 80.66 50.86 80.98Q51.4 81.3 52.23 81.3Q52.87 81.3 53.35 81.08Q53.83 80.86 54.09 80.44Q54.35 80.01 54.35 79.4H56.03Q56.03 80.53 55.53 81.27Q55.03 82.01 54.17 82.37Q53.31 82.73 52.21 82.73Z"/>
</svg>
