<svg xmlns="http://www.w3.org/2000/svg" width="104" height="104" viewBox="0 0 104 104" role="img" aria-label="CFML">
  <title>CFML</title>
  <rect x="0.5" y="0.5" width="103" height="103" rx="8" fill="#f7f6f2" stroke="#d6d3c8"/>
  <path fill="#1b5ea6" d="M40.66 46.87 30.96 42.92V40.41L40.66 36.44V38.79L33.17 41.66L40.66 44.55ZM48.71 47.1Q47.04 47.1 45.9 46.51Q44.75 45.91 44.17 44.69Q43.59 43.47 43.59 41.6Q43.59 39.7 44.18 38.49Q44.77 37.28 45.91 36.68Q47.05 36.09 48.71 36.09Q49.8 36.09 50.68 36.35Q51.55 36.61 52.18 37.14Q52.82 37.67 53.15 38.47Q53.48 39.27 53.48 40.34H50.7Q50.7 39.63 50.48 39.16Q50.26 38.7 49.81 38.46Q49.36 38.23 48.68 38.23Q47.89 38.23 47.39 38.58Q46.89 38.94 46.65 39.64Q46.41 40.34 46.41 41.38V41.83Q46.41 42.86 46.65 43.56Q46.89 44.27 47.41 44.62Q47.93 44.96 48.78 44.96Q49.45 44.96 49.9 44.73Q50.35 44.49 50.59 44.01Q50.83 43.53 50.83 42.84H53.48Q53.48 43.87 53.15 44.67Q52.82 45.47 52.19 46.01Q51.56 46.55 50.68 46.82Q49.8 47.1 48.71 47.1ZM56.45 46.86V38.48H54.93V36.33H56.45V35.19Q56.45 34.33 56.73 33.65Q57.02 32.98 57.66 32.6Q58.3 32.21 59.37 32.21Q59.67 32.21 60 32.26Q60.33 32.3 60.63 32.37Q60.94 32.44 61.15 32.53V34.37H60.17Q59.68 34.37 59.45 34.6Q59.22 34.83 59.22 35.3V36.33H61.15V38.48H59.22V46.86ZM63.34 46.87V44.55L70.84 41.66L63.34 38.79V36.44L73.05 40.41V42.92Z"/>
  <path fill="#16150f" d="M39.19 82.73Q37.87 82.73 36.93 82.26Q36 81.8 35.5 80.82Q35.01 79.83 35.01 78.29Q35.01 76.03 36.11 74.94Q37.21 73.85 39.19 73.85Q40.27 73.85 41.14 74.22Q42 74.59 42.51 75.33Q43.01 76.07 43.01 77.2H41.27Q41.27 76.58 41 76.16Q40.74 75.73 40.28 75.51Q39.82 75.29 39.22 75.29Q38.39 75.29 37.84 75.61Q37.3 75.94 37.04 76.57Q36.78 77.2 36.78 78.13V78.45Q36.78 79.39 37.04 80.03Q37.3 80.66 37.84 80.98Q38.38 81.3 39.21 81.3Q39.86 81.3 40.33 81.08Q40.81 80.86 41.07 80.44Q41.33 80.01 41.33 79.4H43.01Q43.01 80.53 42.51 81.27Q42.01 82.01 41.15 82.37Q40.29 82.73 39.19 82.73ZM44.62 82.58V74H50.85V75.45H46.34V77.68H50.39V79.12H46.34V82.58ZM52.44 82.58V74H55.12L56.42 78.63Q56.49 78.87 56.57 79.19Q56.64 79.5 56.72 79.8Q56.79 80.1 56.83 80.33H56.93Q56.96 80.14 57.01 79.85Q57.06 79.57 57.14 79.24Q57.21 78.92 57.29 78.61L58.6 74H61.24V82.58H59.52V78.35Q59.52 77.78 59.53 77.21Q59.55 76.64 59.56 76.22Q59.58 75.8 59.58 75.71H59.48Q59.46 75.83 59.36 76.2Q59.26 76.58 59.15 77Q59.04 77.43 58.96 77.74L57.57 82.58H56.02L54.63 77.75Q54.56 77.49 54.47 77.12Q54.37 76.76 54.28 76.38Q54.19 75.99 54.12 75.71H54.02Q54.03 76.04 54.04 76.51Q54.06 76.98 54.07 77.47Q54.08 77.95 54.08 78.35V82.58ZM63.28 82.58V74H65V81.1H69.31V82.58Z"/>
</svg>
