<svg xmlns="http://www.w3.org/2000/svg" width="104" height="104" viewBox="0 0 104 104" role="img" aria-label="COBOL">
  <title>COBOL</title>
  <rect x="0.5" y="0.5" width="103" height="103" rx="8" fill="#f7f6f2" stroke="#d6d3c8"/>
  <path d="M37.0,26.0 H74.0 V54.0 H30.0 V33.0 Z" fill="#ecdfb1" stroke="#b3a06a" stroke-width="1" stroke-linejoin="miter"/><rect x="39.8" y="33.4" width="2.4" height="4" fill="#6b5d33"/><rect x="45.2" y="33.4" width="2.4" height="4" fill="#6b5d33"/><rect x="50.6" y="33.4" width="2.4" height="4" fill="#6b5d33"/><rect x="61.4" y="33.4" width="2.4" height="4" fill="#6b5d33"/><rect x="66.8" y="33.4" width="2.4" height="4" fill="#6b5d33"/><rect x="34.4" y="39.8" width="2.4" height="4" fill="#6b5d33"/><rect x="45.2" y="39.8" width="2.4" height="4" fill="#6b5d33"/><rect x="50.6" y="39.8" width="2.4" height="4" fill="#6b5d33"/><rect x="56.0" y="39.8" width="2.4" height="4" fill="#6b5d33"/><rect x="66.8" y="39.8" width="2.4" height="4" fill="#6b5d33"/><rect x="34.4" y="46.2" width="2.4" height="4" fill="#6b5d33"/><rect x="39.8" y="46.2" width="2.4" height="4" fill="#6b5d33"/><rect x="50.6" y="46.2" width="2.4" height="4" fill="#6b5d33"/><rect x="56.0" y="46.2" width="2.4" height="4" fill="#6b5d33"/><rect x="61.4" y="46.2" width="2.4" height="4" fill="#6b5d33"/>
  <path fill="#16150f" d="M34.03 82.73Q32.7 82.73 31.76 82.26Q30.83 81.8 30.33 80.82Q29.84 79.83 29.84 78.29Q29.84 76.03 30.94 74.94Q32.04 73.85 34.03 73.85Q35.1 73.85 35.97 74.22Q36.83 74.59 37.34 75.33Q37.84 76.07 37.84 77.2H36.1Q36.1 76.58 35.84 76.16Q35.58 75.73 35.11 75.51Q34.65 75.29 34.05 75.29Q33.22 75.29 32.68 75.61Q32.13 75.94 31.87 76.57Q31.61 77.2 31.61 78.13V78.45Q31.61 79.39 31.87 80.03Q32.13 80.66 32.67 80.98Q33.21 81.3 34.05 81.3Q34.69 81.3 35.16 81.08Q35.64 80.86 35.9 80.44Q36.16 80.01 36.16 79.4H37.84Q37.84 80.53 37.35 81.27Q36.85 82.01 35.98 82.37Q35.12 82.73 34.03 82.73ZM43.41 82.73Q42.07 82.73 41.09 82.25Q40.11 81.76 39.58 80.78Q39.06 79.79 39.06 78.29Q39.06 76.78 39.58 75.8Q40.11 74.82 41.09 74.34Q42.07 73.85 43.41 73.85Q44.78 73.85 45.75 74.34Q46.73 74.82 47.25 75.8Q47.77 76.78 47.77 78.29Q47.77 79.79 47.25 80.78Q46.73 81.76 45.75 82.25Q44.78 82.73 43.41 82.73ZM43.41 81.3Q44.05 81.3 44.53 81.11Q45.01 80.93 45.34 80.57Q45.67 80.21 45.83 79.68Q46 79.15 46 78.46V78.14Q46 77.44 45.83 76.91Q45.67 76.37 45.34 76.01Q45.01 75.66 44.53 75.47Q44.05 75.29 43.41 75.29Q42.78 75.29 42.3 75.47Q41.82 75.66 41.49 76.01Q41.17 76.37 41 76.91Q40.84 77.44 40.84 78.14V78.46Q40.84 79.15 41 79.68Q41.17 80.21 41.49 80.57Q41.82 80.93 42.3 81.11Q42.78 81.3 43.41 81.3ZM49.42 82.58V74H54.19Q54.87 74 55.42 74.27Q55.96 74.53 56.27 75Q56.59 75.48 56.59 76.12Q56.59 76.61 56.4 77.01Q56.21 77.41 55.89 77.68Q55.57 77.95 55.17 78.08V78.13Q55.65 78.23 56.02 78.51Q56.39 78.79 56.61 79.22Q56.82 79.65 56.82 80.22Q56.82 81.01 56.47 81.54Q56.11 82.06 55.52 82.32Q54.93 82.58 54.2 82.58ZM51.15 81.14H53.92Q54.41 81.14 54.73 80.87Q55.05 80.59 55.05 80.01Q55.05 79.67 54.92 79.42Q54.78 79.17 54.51 79.03Q54.24 78.89 53.83 78.89H51.15ZM51.15 77.49H53.71Q54.07 77.49 54.31 77.36Q54.56 77.22 54.69 76.99Q54.81 76.76 54.81 76.47Q54.81 75.95 54.53 75.69Q54.25 75.43 53.79 75.43H51.15ZM62.44 82.73Q61.09 82.73 60.11 82.25Q59.13 81.76 58.61 80.78Q58.09 79.79 58.09 78.29Q58.09 76.78 58.61 75.8Q59.13 74.82 60.11 74.34Q61.09 73.85 62.44 73.85Q63.8 73.85 64.78 74.34Q65.75 74.82 66.27 75.8Q66.79 76.78 66.79 78.29Q66.79 79.79 66.27 80.78Q65.75 81.76 64.78 82.25Q63.8 82.73 62.44 82.73ZM62.44 81.3Q63.07 81.3 63.55 81.11Q64.03 80.93 64.36 80.57Q64.69 80.21 64.86 79.68Q65.03 79.15 65.03 78.46V78.14Q65.03 77.44 64.86 76.91Q64.69 76.37 64.36 76.01Q64.03 75.66 63.55 75.47Q63.07 75.29 62.44 75.29Q61.81 75.29 61.33 75.47Q60.85 75.66 60.52 76.01Q60.19 76.37 60.03 76.91Q59.86 77.44 59.86 78.14V78.46Q59.86 79.15 60.03 79.68Q60.19 80.21 60.52 80.57Q60.85 80.93 61.33 81.11Q61.81 81.3 62.44 81.3ZM68.45 82.58V74H70.17V81.1H74.48V82.58Z"/>
</svg>
