<svg xmlns="http://www.w3.org/2000/svg" width="104" height="104" viewBox="0 0 104 104" role="img" aria-label="C++">
  <title>C++</title>
  <rect x="0.5" y="0.5" width="103" height="103" rx="8" fill="#f7f6f2" stroke="#d6d3c8"/>
  <g transform="translate(30.0,18) scale(1.83333)"><path fill="#00599C" d="M22.394 6c-.167-.29-.398-.543-.652-.69L12.926.22c-.509-.294-1.34-.294-1.848 0L2.26 5.31c-.508.293-.923 1.013-.923 1.6v10.18c0 .294.104.62.271.91.167.29.398.543.652.69l8.816 5.09c.508.293 1.34.293 1.848 0l8.816-5.09c.254-.147.485-.4.652-.69.167-.29.27-.616.27-.91V6.91c.003-.294-.1-.62-.268-.91zM12 19.11c-3.92 0-7.109-3.19-7.109-7.11 0-3.92 3.19-7.11 7.11-7.11a7.133 7.133 0 016.156 3.553l-3.076 1.78a3.567 3.567 0 00-3.08-1.78A3.56 3.56 0 008.444 12 3.56 3.56 0 0012 15.555a3.57 3.57 0 003.08-1.778l3.078 1.78A7.135 7.135 0 0112 19.11zm7.11-6.715h-.79v.79h-.79v-.79h-.79v-.79h.79v-.79h.79v.79h.79zm2.962 0h-.79v.79h-.79v-.79h-.79v-.79h.79v-.79h.79v.79h.79z"/></g>
  <path fill="#16150f" d="M44.09 82.73Q42.76 82.73 41.83 82.26Q40.89 81.8 40.39 80.82Q39.9 79.83 39.9 78.29Q39.9 76.03 41 74.94Q42.11 73.85 44.09 73.85Q45.17 73.85 46.03 74.22Q46.89 74.59 47.4 75.33Q47.91 76.07 47.91 77.2H46.16Q46.16 76.58 45.9 76.16Q45.64 75.73 45.18 75.51Q44.71 75.29 44.11 75.29Q43.28 75.29 42.74 75.61Q42.19 75.94 41.93 76.57Q41.68 77.2 41.68 78.13V78.45Q41.68 79.39 41.94 80.03Q42.2 80.66 42.73 80.98Q43.27 81.3 44.11 81.3Q44.75 81.3 45.23 81.08Q45.7 80.86 45.96 80.44Q46.22 80.01 46.22 79.4H47.91Q47.91 80.53 47.41 81.27Q46.91 82.01 46.05 82.37Q45.18 82.73 44.09 82.73ZM51.92 82.58V80.01H49.57V78.75H51.92V76.17H53.17V78.75H55.53V80.01H53.17V82.58ZM60.04 82.58V80.01H57.7V78.75H60.04V76.17H61.3V78.75H63.66V80.01H61.3V82.58Z"/>
</svg>
