<svg xmlns="http://www.w3.org/2000/svg" width="104" height="104" viewBox="0 0 104 104" role="img" aria-label="C#">
  <title>C#</title>
  <rect x="0.5" y="0.5" width="103" height="103" rx="8" fill="#f7f6f2" stroke="#d6d3c8"/>
  <g transform="translate(30.0,18) scale(0.34375)"><path fill="#9B4F96" d="M115.4 30.7L67.1 2.9c-.8-.5-1.9-.7-3.1-.7-1.2 0-2.3.3-3.1.7l-48 27.9c-1.7 1-2.9 3.5-2.9 5.4v55.7c0 1.1.2 2.4 1 3.5l106.8-62c-.6-1.2-1.5-2.1-2.4-2.7z"/><path fill="#68217A" d="M10.7 95.3c.5.8 1.2 1.5 1.9 1.9l48.2 27.9c.8.5 1.9.7 3.1.7 1.2 0 2.3-.3 3.1-.7l48-27.9c1.7-1 2.9-3.5 2.9-5.4V36.1c0-.9-.1-1.9-.6-2.8l-106.6 62z"/><path fill="#fff" d="M85.3 76.1C81.1 83.5 73.1 88.5 64 88.5c-13.5 0-24.5-11-24.5-24.5s11-24.5 24.5-24.5c9.1 0 17.1 5 21.3 12.5l13-7.5c-6.8-11.9-19.6-20-34.3-20-21.8 0-39.5 17.7-39.5 39.5s17.7 39.5 39.5 39.5c14.6 0 27.4-8 34.2-19.8l-12.9-7.6zM97 66.2l.9-4.3h-4.2v-4.7h5.1L100 51h4.9l-1.2 6.1h3.8l1.2-6.1h4.8l-1.2 6.1h2.4v4.7h-3.3l-.9 4.3h4.2v4.7h-5.1l-1.2 6h-4.9l1.2-6h-3.8l-1.2 6h-4.8l1.2-6h-2.4v-4.7H97zm4.8 0h3.8l.9-4.3h-3.8l-.9 4.3z"/></g>
  <path fill="#16150f" d="M48.45 82.73Q47.13 82.73 46.19 82.26Q45.25 81.8 44.76 80.82Q44.26 79.83 44.26 78.29Q44.26 76.03 45.37 74.94Q46.47 73.85 48.45 73.85Q49.53 73.85 50.39 74.22Q51.26 74.59 51.76 75.33Q52.27 76.07 52.27 77.2H50.52Q50.52 76.58 50.26 76.16Q50 75.73 49.54 75.51Q49.08 75.29 48.47 75.29Q47.65 75.29 47.1 75.61Q46.56 75.94 46.3 76.57Q46.04 77.2 46.04 78.13V78.45Q46.04 79.39 46.3 80.03Q46.56 80.66 47.1 80.98Q47.63 81.3 48.47 81.3Q49.11 81.3 49.59 81.08Q50.06 80.86 50.33 80.44Q50.59 80.01 50.59 79.4H52.27Q52.27 80.53 51.77 81.27Q51.27 82.01 50.41 82.37Q49.55 82.73 48.45 82.73ZM53.65 82.73 54.11 80.49H53.22V79.25H54.37L54.71 77.6H53.8V76.36H54.98L55.52 73.85H56.79L56.26 76.36H57.75L58.28 73.85H59.56L59.03 76.36H60V77.6H58.78L58.43 79.25H59.44V80.49H58.18L57.7 82.73H56.42L56.9 80.49H55.39L54.93 82.73ZM55.65 79.25H57.15L57.5 77.6H55.99Z"/>
</svg>
