<svg xmlns="http://www.w3.org/2000/svg" width="104" height="104" viewBox="0 0 104 104" role="img" aria-label="CUDA">
  <title>CUDA</title>
  <rect x="0.5" y="0.5" width="103" height="103" rx="8" fill="#f7f6f2" stroke="#d6d3c8"/>
  <g transform="translate(30.0,18) scale(1.83333)"><path fill="#76B900" d="M8.948 8.798v-1.43a6.7 6.7 0 0 1 .424-.018c3.922-.124 6.493 3.374 6.493 3.374s-2.774 3.851-5.75 3.851c-.398 0-.787-.062-1.158-.185v-4.346c1.528.185 1.837.857 2.747 2.385l2.04-1.714s-1.492-1.952-4-1.952a6.016 6.016 0 0 0-.796.035m0-4.735v2.138l.424-.027c5.45-.185 9.01 4.47 9.01 4.47s-4.08 4.964-8.33 4.964c-.37 0-.733-.035-1.095-.097v1.325c.3.035.61.062.91.062 3.957 0 6.82-2.023 9.593-4.408.459.371 2.34 1.263 2.73 1.652-2.633 2.208-8.772 3.984-12.253 3.984-.335 0-.653-.018-.971-.053v1.864H24V4.063zm0 10.326v1.131c-3.657-.654-4.673-4.46-4.673-4.46s1.758-1.944 4.673-2.262v1.237H8.94c-1.528-.186-2.73 1.245-2.73 1.245s.68 2.412 2.739 3.11M2.456 10.9s2.164-3.197 6.5-3.533V6.201C4.153 6.59 0 10.653 0 10.653s2.35 6.802 8.948 7.42v-1.237c-4.84-.6-6.492-5.936-6.492-5.936z"/></g>
  <path fill="#16150f" d="M38.36 82.73Q37.04 82.73 36.1 82.26Q35.16 81.8 34.67 80.82Q34.17 79.83 34.17 78.29Q34.17 76.03 35.28 74.94Q36.38 73.85 38.36 73.85Q39.44 73.85 40.31 74.22Q41.17 74.59 41.67 75.33Q42.18 76.07 42.18 77.2H40.43Q40.43 76.58 40.17 76.16Q39.91 75.73 39.45 75.51Q38.99 75.29 38.39 75.29Q37.56 75.29 37.01 75.61Q36.47 75.94 36.21 76.57Q35.95 77.2 35.95 78.13V78.45Q35.95 79.39 36.21 80.03Q36.47 80.66 37.01 80.98Q37.55 81.3 38.38 81.3Q39.02 81.3 39.5 81.08Q39.98 80.86 40.24 80.44Q40.5 80.01 40.5 79.4H42.18Q42.18 80.53 41.68 81.27Q41.18 82.01 40.32 82.37Q39.46 82.73 38.36 82.73ZM47.41 82.73Q46.27 82.73 45.44 82.36Q44.62 82 44.18 81.25Q43.74 80.5 43.74 79.38V74H45.46V79.33Q45.46 80.29 45.97 80.79Q46.48 81.3 47.41 81.3Q48.34 81.3 48.86 80.79Q49.38 80.29 49.38 79.33V74H51.1V79.38Q51.1 80.5 50.66 81.25Q50.22 82 49.39 82.36Q48.57 82.73 47.41 82.73ZM53.1 82.58V74H56.56Q57.88 74 58.81 74.47Q59.74 74.93 60.24 75.87Q60.74 76.82 60.74 78.29Q60.74 79.75 60.24 80.7Q59.74 81.66 58.81 82.12Q57.88 82.58 56.56 82.58ZM54.82 81.13H56.56Q57.14 81.13 57.59 80.96Q58.05 80.79 58.35 80.46Q58.65 80.12 58.81 79.62Q58.97 79.12 58.97 78.45V78.14Q58.97 77.47 58.81 76.96Q58.65 76.46 58.35 76.12Q58.05 75.79 57.59 75.62Q57.14 75.45 56.56 75.45H54.82ZM61.52 82.58 64.84 74H66.99L70.32 82.58H68.46L67.8 80.81H63.95L63.29 82.58ZM64.47 79.39H67.27L66.45 77.14Q66.4 77.02 66.33 76.82Q66.26 76.63 66.19 76.39Q66.11 76.16 66.04 75.92Q65.96 75.69 65.9 75.5H65.84Q65.76 75.75 65.66 76.07Q65.56 76.39 65.46 76.68Q65.36 76.97 65.29 77.14Z"/>
</svg>
