<svg xmlns="http://www.w3.org/2000/svg" width="104" height="104" viewBox="0 0 104 104" role="img" aria-label="Dart">
  <title>Dart</title>
  <rect x="0.5" y="0.5" width="103" height="103" rx="8" fill="#f7f6f2" stroke="#d6d3c8"/>
  <g transform="translate(30.0,18) scale(1.83333)"><path fill="#0175C2" d="M4.105 4.105S9.158 1.58 11.684.316a3.079 3.079 0 0 1 1.481-.315c.766.047 1.677.788 1.677.788L24 9.948v9.789h-4.263V24H9.789l-9-9C.303 14.5 0 13.795 0 13.105c0-.319.18-.818.316-1.105l3.789-7.895zm.679.679v11.787c.002.543.021 1.024.498 1.508L10.204 23h8.533v-4.263L4.784 4.784zm12.055-.678c-.899-.896-1.809-1.78-2.74-2.643-.302-.267-.567-.468-1.07-.462-.37.014-.87.195-.87.195L6.341 4.105l10.498.001z"/></g>
  <path fill="#16150f" d="M40.27 82.58V74H43.74Q45.05 74 45.98 74.47Q46.91 74.93 47.42 75.87Q47.92 76.82 47.92 78.29Q47.92 79.75 47.42 80.7Q46.91 81.66 45.98 82.12Q45.05 82.58 43.74 82.58ZM42 81.13H43.73Q44.32 81.13 44.77 80.96Q45.22 80.79 45.52 80.46Q45.83 80.12 45.98 79.62Q46.14 79.12 46.14 78.45V78.14Q46.14 77.47 45.98 76.96Q45.83 76.46 45.52 76.12Q45.22 75.79 44.77 75.62Q44.32 75.45 43.73 75.45H42ZM51.14 82.73Q50.85 82.73 50.48 82.66Q50.12 82.59 49.79 82.4Q49.46 82.21 49.25 81.84Q49.05 81.47 49.05 80.88Q49.05 80.2 49.35 79.75Q49.65 79.31 50.19 79.05Q50.74 78.8 51.51 78.69Q52.27 78.59 53.19 78.59V78.07Q53.19 77.78 53.09 77.56Q53 77.34 52.77 77.21Q52.54 77.09 52.1 77.09Q51.66 77.09 51.4 77.19Q51.14 77.3 51.03 77.46Q50.93 77.62 50.93 77.8V77.96H49.37Q49.36 77.9 49.36 77.84Q49.36 77.78 49.36 77.7Q49.36 77.13 49.7 76.71Q50.04 76.3 50.66 76.07Q51.27 75.85 52.09 75.85Q52.99 75.85 53.59 76.1Q54.19 76.34 54.49 76.81Q54.79 77.27 54.79 77.95V81Q54.79 81.23 54.93 81.34Q55.06 81.44 55.23 81.44H55.63V82.53Q55.51 82.58 55.26 82.65Q55.01 82.72 54.65 82.72Q54.31 82.72 54.05 82.61Q53.78 82.51 53.6 82.31Q53.42 82.11 53.34 81.84H53.27Q53.05 82.1 52.75 82.3Q52.45 82.51 52.06 82.62Q51.66 82.73 51.14 82.73ZM51.65 81.45Q52.02 81.45 52.3 81.35Q52.59 81.24 52.78 81.04Q52.97 80.85 53.08 80.57Q53.19 80.3 53.19 79.97V79.65Q52.49 79.65 51.92 79.74Q51.35 79.83 51.02 80.06Q50.69 80.29 50.69 80.71Q50.69 80.94 50.8 81.11Q50.9 81.27 51.12 81.36Q51.34 81.45 51.65 81.45ZM56.66 82.58V76H58L58.13 77.04H58.21Q58.34 76.72 58.53 76.45Q58.72 76.18 59.01 76.02Q59.3 75.85 59.71 75.85Q59.92 75.85 60.09 75.89Q60.26 75.93 60.35 75.97V77.46H59.85Q59.47 77.46 59.17 77.57Q58.87 77.67 58.67 77.9Q58.46 78.12 58.36 78.45Q58.27 78.79 58.27 79.23V82.58ZM63.25 82.73Q62.63 82.73 62.27 82.49Q61.9 82.26 61.75 81.88Q61.59 81.49 61.59 81.07V77.29H60.79V76H61.63L61.93 74.15H63.2V76H64.36V77.29H63.2V80.86Q63.2 81.14 63.34 81.29Q63.47 81.44 63.76 81.44H64.36V82.53Q64.23 82.58 64.04 82.62Q63.85 82.67 63.64 82.7Q63.43 82.73 63.25 82.73Z"/>
</svg>
