<svg xmlns="http://www.w3.org/2000/svg" width="104" height="104" viewBox="0 0 104 104" role="img" aria-label="Erlang">
  <title>Erlang</title>
  <rect x="0.5" y="0.5" width="103" height="103" rx="8" fill="#f7f6f2" stroke="#d6d3c8"/>
  <g transform="translate(30.0,18) scale(1.83333)"><path fill="#A90533" d="M8.859 7.889c.154-1.863 1.623-3.115 3.344-3.119 1.734.004 2.986 1.256 3.029 3.119zm12.11 11.707c.802-.86 1.52-1.872 2.172-3.03l-3.616-1.807c-1.27 2.064-3.127 3.965-5.694 3.977-3.738-.012-5.206-3.208-5.198-7.322h13.966c.019-.464.019-.68 0-.904.091-2.447-.558-4.504-1.737-6.106l-.007.005H24v15.186h-3.039zm-17.206-.001C1.901 17.62.811 14.894.813 11.64c-.002-2.877.902-5.35 2.456-7.232H0v15.187h3.761Z"/></g>
  <path fill="#16150f" d="M33.46 82.58V74H40.22V75.45H35.19V77.48H39.66V78.92H35.19V81.13H40.29V82.58ZM41.92 82.58V76H43.26L43.39 77.04H43.48Q43.6 76.72 43.79 76.45Q43.98 76.18 44.27 76.02Q44.56 75.85 44.97 75.85Q45.18 75.85 45.35 75.89Q45.52 75.93 45.61 75.97V77.46H45.12Q44.73 77.46 44.43 77.57Q44.13 77.67 43.93 77.9Q43.73 78.12 43.63 78.45Q43.53 78.79 43.53 79.23V82.58ZM46.68 82.58V73.54H48.29V82.58ZM51.77 82.73Q51.47 82.73 51.11 82.66Q50.75 82.59 50.42 82.4Q50.09 82.21 49.88 81.84Q49.67 81.47 49.67 80.88Q49.67 80.2 49.97 79.75Q50.27 79.31 50.82 79.05Q51.37 78.8 52.13 78.69Q52.89 78.59 53.81 78.59V78.07Q53.81 77.78 53.72 77.56Q53.63 77.34 53.4 77.21Q53.17 77.09 52.72 77.09Q52.28 77.09 52.02 77.19Q51.76 77.3 51.66 77.46Q51.56 77.62 51.56 77.8V77.96H50Q49.98 77.9 49.98 77.84Q49.98 77.78 49.98 77.7Q49.98 77.13 50.33 76.71Q50.67 76.3 51.28 76.07Q51.9 75.85 52.71 75.85Q53.62 75.85 54.21 76.1Q54.81 76.34 55.12 76.81Q55.42 77.27 55.42 77.95V81Q55.42 81.23 55.55 81.34Q55.69 81.44 55.85 81.44H56.26V82.53Q56.13 82.58 55.88 82.65Q55.64 82.72 55.28 82.72Q54.94 82.72 54.67 82.61Q54.4 82.51 54.22 82.31Q54.04 82.11 53.97 81.84H53.89Q53.68 82.1 53.38 82.3Q53.08 82.51 52.68 82.62Q52.28 82.73 51.77 82.73ZM52.28 81.45Q52.64 81.45 52.93 81.35Q53.22 81.24 53.41 81.04Q53.6 80.85 53.71 80.57Q53.81 80.3 53.81 79.97V79.65Q53.12 79.65 52.55 79.74Q51.98 79.83 51.65 80.06Q51.31 80.29 51.31 80.71Q51.31 80.94 51.42 81.11Q51.53 81.27 51.75 81.36Q51.96 81.45 52.28 81.45ZM57.28 82.58V76H58.62L58.75 76.89H58.84Q59.07 76.58 59.38 76.35Q59.69 76.11 60.08 75.98Q60.48 75.85 60.95 75.85Q61.59 75.85 62.08 76.08Q62.56 76.31 62.83 76.82Q63.1 77.32 63.1 78.16V82.58H61.48V78.43Q61.48 78.1 61.41 77.87Q61.33 77.64 61.18 77.5Q61.02 77.36 60.8 77.3Q60.59 77.23 60.32 77.23Q59.91 77.23 59.59 77.43Q59.27 77.62 59.08 77.96Q58.89 78.3 58.89 78.75V82.58ZM65.9 84.89Q65.46 84.89 65.08 84.71Q64.69 84.53 64.45 84.18Q64.22 83.84 64.22 83.34Q64.22 82.79 64.54 82.47Q64.85 82.15 65.24 81.98Q64.96 81.83 64.78 81.57Q64.59 81.32 64.59 80.97Q64.59 80.49 64.95 80.2Q65.3 79.91 65.75 79.82Q65.29 79.53 65.04 79.08Q64.79 78.64 64.79 78.07Q64.79 77.37 65.14 76.88Q65.48 76.39 66.13 76.12Q66.78 75.85 67.68 75.85Q68.04 75.85 68.38 75.9Q68.71 75.95 68.97 76.04Q69.42 75.77 69.59 75.44Q69.75 75.11 69.77 74.9H71.3Q71.3 75.35 71.13 75.69Q70.96 76.03 70.66 76.24Q70.36 76.46 69.93 76.56Q70.24 76.84 70.41 77.23Q70.58 77.61 70.58 78.07Q70.58 78.76 70.25 79.26Q69.93 79.76 69.31 80.03Q68.69 80.3 67.8 80.3H66.79Q66.52 80.3 66.37 80.41Q66.22 80.52 66.22 80.72Q66.22 80.88 66.36 81Q66.49 81.13 66.75 81.13H69.57Q70.34 81.13 70.83 81.62Q71.31 82.11 71.31 82.87Q71.31 83.45 71.01 83.9Q70.71 84.36 70.18 84.62Q69.64 84.89 68.94 84.89ZM66.52 83.76H68.89Q69.13 83.76 69.31 83.68Q69.48 83.6 69.59 83.45Q69.69 83.3 69.69 83.11Q69.69 82.79 69.49 82.63Q69.28 82.47 68.99 82.47H66.52Q66.22 82.47 66.03 82.64Q65.83 82.82 65.83 83.11Q65.83 83.4 66.02 83.58Q66.21 83.76 66.52 83.76ZM67.69 79.2Q68.33 79.2 68.66 78.91Q68.98 78.61 68.98 78.07Q68.98 77.53 68.66 77.24Q68.33 76.95 67.69 76.95Q67.05 76.95 66.73 77.24Q66.4 77.53 66.4 78.07Q66.4 78.42 66.54 78.68Q66.68 78.94 66.97 79.07Q67.25 79.2 67.69 79.2Z"/>
</svg>
