<svg xmlns="http://www.w3.org/2000/svg" width="104" height="104" viewBox="0 0 104 104" role="img" aria-label="Go">
  <title>Go</title>
  <rect x="0.5" y="0.5" width="103" height="103" rx="8" fill="#f7f6f2" stroke="#d6d3c8"/>
  <g transform="translate(30.0,18) scale(1.83333)"><path fill="#00ADD8" d="M1.811 10.231c-.047 0-.058-.023-.035-.059l.246-.315c.023-.035.081-.058.128-.058h4.172c.046 0 .058.035.035.07l-.199.303c-.023.036-.082.07-.117.07zM.047 11.306c-.047 0-.059-.023-.035-.058l.245-.316c.023-.035.082-.058.129-.058h5.328c.047 0 .07.035.058.07l-.093.28c-.012.047-.058.07-.105.07zm2.828 1.075c-.047 0-.059-.035-.035-.07l.163-.292c.023-.035.07-.07.117-.07h2.337c.047 0 .07.035.07.082l-.023.28c0 .047-.047.082-.082.082zm12.129-2.36c-.736.187-1.239.327-1.963.514-.176.046-.187.058-.34-.117-.174-.199-.303-.327-.548-.444-.737-.362-1.45-.257-2.115.175-.795.514-1.204 1.274-1.192 2.22.011.935.654 1.706 1.577 1.835.795.105 1.46-.175 1.987-.77.105-.13.198-.27.315-.434H10.47c-.245 0-.304-.152-.222-.35.152-.362.432-.97.596-1.274a.315.315 0 01.292-.187h4.253c-.023.316-.023.631-.07.947a4.983 4.983 0 01-.958 2.29c-.841 1.11-1.94 1.8-3.33 1.986-1.145.152-2.209-.07-3.143-.77-.865-.655-1.356-1.52-1.484-2.595-.152-1.274.222-2.419.993-3.424.83-1.086 1.928-1.776 3.272-2.02 1.098-.2 2.15-.07 3.096.571.62.41 1.063.97 1.356 1.648.07.105.023.164-.117.2m3.868 6.461c-1.064-.024-2.034-.328-2.852-1.029a3.665 3.665 0 01-1.262-2.255c-.21-1.32.152-2.489.947-3.529.853-1.122 1.881-1.706 3.272-1.95 1.192-.21 2.314-.095 3.33.595.923.63 1.496 1.484 1.648 2.605.198 1.578-.257 2.863-1.344 3.962-.771.783-1.718 1.273-2.805 1.495-.315.06-.63.07-.934.106zm2.78-4.72c-.011-.153-.011-.27-.034-.387-.21-1.157-1.274-1.81-2.384-1.554-1.087.245-1.788.935-2.045 2.033-.21.912.234 1.835 1.075 2.21.643.28 1.285.244 1.905-.07.923-.48 1.425-1.228 1.484-2.233z"/></g>
  <path fill="#16150f" d="M48.02 82.73Q46.02 82.73 44.92 81.66Q43.82 80.58 43.82 78.29Q43.82 76.78 44.34 75.8Q44.87 74.82 45.85 74.34Q46.84 73.85 48.22 73.85Q49.06 73.85 49.79 74.04Q50.52 74.23 51.08 74.61Q51.64 75 51.95 75.58Q52.27 76.15 52.27 76.94H50.51Q50.51 76.54 50.33 76.23Q50.16 75.92 49.85 75.71Q49.54 75.5 49.13 75.39Q48.73 75.29 48.28 75.29Q47.61 75.29 47.1 75.46Q46.6 75.64 46.26 76Q45.93 76.36 45.76 76.89Q45.6 77.43 45.6 78.14V78.45Q45.6 79.43 45.88 80.06Q46.16 80.69 46.73 80.99Q47.3 81.3 48.14 81.3Q48.85 81.3 49.39 81.08Q49.93 80.86 50.25 80.45Q50.56 80.03 50.56 79.43V79.35H47.89V77.96H52.27V82.58H51.08L50.93 81.64Q50.56 82.01 50.13 82.25Q49.7 82.49 49.19 82.61Q48.67 82.73 48.02 82.73ZM57.06 82.73Q55.98 82.73 55.24 82.36Q54.51 81.99 54.14 81.23Q53.77 80.46 53.77 79.29Q53.77 78.11 54.14 77.35Q54.51 76.59 55.24 76.22Q55.98 75.85 57.06 75.85Q58.15 75.85 58.88 76.22Q59.6 76.59 59.98 77.35Q60.35 78.11 60.35 79.29Q60.35 80.46 59.98 81.23Q59.6 81.99 58.88 82.36Q58.15 82.73 57.06 82.73ZM57.06 81.44Q57.64 81.44 58 81.22Q58.36 80.99 58.53 80.54Q58.69 80.08 58.69 79.4V79.18Q58.69 78.5 58.53 78.05Q58.36 77.59 58 77.37Q57.64 77.14 57.06 77.14Q56.47 77.14 56.11 77.37Q55.75 77.59 55.58 78.05Q55.42 78.5 55.42 79.18V79.4Q55.42 80.08 55.58 80.54Q55.75 80.99 56.11 81.22Q56.47 81.44 57.06 81.44Z"/>
</svg>
