<svg xmlns="http://www.w3.org/2000/svg" width="104" height="104" viewBox="0 0 104 104" role="img" aria-label="JavaScript">
  <title>JavaScript</title>
  <rect x="0.5" y="0.5" width="103" height="103" rx="8" fill="#f7f6f2" stroke="#d6d3c8"/>
  <g transform="translate(30.0,18) scale(1.83333)"><path fill="#F7DF1E" d="M0 0h24v24H0V0zm22.034 18.276c-.175-1.095-.888-2.015-3.003-2.873-.736-.345-1.554-.585-1.797-1.14-.091-.33-.105-.51-.046-.705.15-.646.915-.84 1.515-.66.39.12.75.42.976.9 1.034-.676 1.034-.676 1.755-1.125-.27-.42-.404-.601-.586-.78-.63-.705-1.469-1.065-2.834-1.034l-.705.089c-.676.165-1.32.525-1.71 1.005-1.14 1.291-.811 3.541.569 4.471 1.365 1.02 3.361 1.244 3.616 2.205.24 1.17-.87 1.545-1.966 1.41-.811-.18-1.26-.586-1.755-1.336l-1.83 1.051c.21.48.45.689.81 1.109 1.74 1.756 6.09 1.666 6.871-1.004.029-.09.24-.705.074-1.65l.046.067zm-8.983-7.245h-2.248c0 1.938-.009 3.864-.009 5.805 0 1.232.063 2.363-.138 2.711-.33.689-1.18.601-1.566.48-.396-.196-.597-.466-.83-.855-.063-.105-.11-.196-.127-.196l-1.825 1.125c.305.63.75 1.172 1.324 1.517.855.51 2.004.675 3.207.405.783-.226 1.458-.691 1.811-1.411.51-.93.402-2.07.397-3.346.012-2.054 0-4.109 0-6.179l.004-.056z"/></g>
  <path fill="#16150f" d="M23.3 82.73Q22.33 82.73 21.65 82.44Q20.97 82.15 20.62 81.58Q20.26 81.01 20.26 80.15V79.71H21.96V80.15Q21.96 80.72 22.29 81.01Q22.63 81.3 23.29 81.3Q23.93 81.3 24.26 80.86Q24.59 80.43 24.59 79.64V74H26.32V79.64Q26.32 80.67 25.97 81.36Q25.61 82.05 24.94 82.39Q24.26 82.73 23.3 82.73ZM29.89 82.73Q29.6 82.73 29.23 82.66Q28.87 82.59 28.54 82.4Q28.21 82.21 28 81.84Q27.8 81.47 27.8 80.88Q27.8 80.2 28.1 79.75Q28.4 79.31 28.94 79.05Q29.49 78.8 30.26 78.69Q31.02 78.59 31.94 78.59V78.07Q31.94 77.78 31.84 77.56Q31.75 77.34 31.52 77.21Q31.29 77.09 30.85 77.09Q30.41 77.09 30.15 77.19Q29.89 77.3 29.78 77.46Q29.68 77.62 29.68 77.8V77.96H28.12Q28.11 77.9 28.11 77.84Q28.11 77.78 28.11 77.7Q28.11 77.13 28.45 76.71Q28.79 76.3 29.41 76.07Q30.02 75.85 30.84 75.85Q31.74 75.85 32.34 76.1Q32.94 76.34 33.24 76.81Q33.54 77.27 33.54 77.95V81Q33.54 81.23 33.68 81.34Q33.81 81.44 33.98 81.44H34.38V82.53Q34.26 82.58 34.01 82.65Q33.76 82.72 33.4 82.72Q33.06 82.72 32.8 82.61Q32.53 82.51 32.35 82.31Q32.17 82.11 32.09 81.84H32.02Q31.8 82.1 31.5 82.3Q31.2 82.51 30.81 82.62Q30.41 82.73 29.89 82.73ZM30.4 81.45Q30.77 81.45 31.05 81.35Q31.34 81.24 31.53 81.04Q31.72 80.85 31.83 80.57Q31.94 80.3 31.94 79.97V79.65Q31.24 79.65 30.67 79.74Q30.1 79.83 29.77 80.06Q29.44 80.29 29.44 80.71Q29.44 80.94 29.55 81.11Q29.65 81.27 29.87 81.36Q30.09 81.45 30.4 81.45ZM37.1 82.58 34.66 76H36.35L37.38 78.89Q37.45 79.1 37.56 79.46Q37.66 79.81 37.77 80.2Q37.89 80.58 37.96 80.89H38.03Q38.1 80.6 38.2 80.23Q38.31 79.85 38.41 79.49Q38.52 79.13 38.6 78.89L39.62 76H41.24L38.79 82.58ZM43.97 82.73Q43.67 82.73 43.31 82.66Q42.95 82.59 42.62 82.4Q42.29 82.21 42.08 81.84Q41.87 81.47 41.87 80.88Q41.87 80.2 42.17 79.75Q42.47 79.31 43.02 79.05Q43.57 78.8 44.33 78.69Q45.09 78.59 46.01 78.59V78.07Q46.01 77.78 45.92 77.56Q45.83 77.34 45.6 77.21Q45.37 77.09 44.92 77.09Q44.48 77.09 44.22 77.19Q43.96 77.3 43.86 77.46Q43.76 77.62 43.76 77.8V77.96H42.2Q42.18 77.9 42.18 77.84Q42.18 77.78 42.18 77.7Q42.18 77.13 42.53 76.71Q42.87 76.3 43.48 76.07Q44.1 75.85 44.91 75.85Q45.82 75.85 46.41 76.1Q47.01 76.34 47.32 76.81Q47.62 77.27 47.62 77.95V81Q47.62 81.23 47.75 81.34Q47.89 81.44 48.05 81.44H48.46V82.53Q48.33 82.58 48.08 82.65Q47.84 82.72 47.48 82.72Q47.14 82.72 46.87 82.61Q46.6 82.51 46.42 82.31Q46.24 82.11 46.17 81.84H46.09Q45.88 82.1 45.58 82.3Q45.28 82.51 44.88 82.62Q44.48 82.73 43.97 82.73ZM44.48 81.45Q44.84 81.45 45.13 81.35Q45.42 81.24 45.61 81.04Q45.8 80.85 45.91 80.57Q46.01 80.3 46.01 79.97V79.65Q45.32 79.65 44.75 79.74Q44.18 79.83 43.85 80.06Q43.51 80.29 43.51 80.71Q43.51 80.94 43.62 81.11Q43.73 81.27 43.95 81.36Q44.16 81.45 44.48 81.45ZM52.88 82.73Q52.15 82.73 51.49 82.58Q50.83 82.42 50.33 82.09Q49.82 81.76 49.53 81.26Q49.24 80.76 49.24 80.07Q49.24 80 49.24 79.93Q49.25 79.85 49.25 79.82H50.97Q50.97 79.84 50.96 79.91Q50.96 79.98 50.96 80.03Q50.96 80.43 51.19 80.72Q51.42 81.01 51.86 81.15Q52.3 81.3 52.89 81.3Q53.28 81.3 53.59 81.26Q53.89 81.21 54.12 81.12Q54.34 81.03 54.49 80.91Q54.64 80.78 54.71 80.63Q54.78 80.47 54.78 80.28Q54.78 79.93 54.55 79.7Q54.33 79.47 53.95 79.32Q53.57 79.16 53.09 79.03Q52.61 78.9 52.11 78.77Q51.61 78.63 51.13 78.44Q50.65 78.25 50.27 77.97Q49.89 77.69 49.67 77.27Q49.44 76.85 49.44 76.26Q49.44 75.65 49.7 75.19Q49.96 74.73 50.44 74.44Q50.91 74.14 51.55 74Q52.18 73.85 52.92 73.85Q53.61 73.85 54.22 74Q54.84 74.14 55.3 74.45Q55.77 74.76 56.04 75.23Q56.3 75.7 56.3 76.35V76.5H54.61V76.39Q54.61 76.04 54.4 75.79Q54.19 75.54 53.81 75.41Q53.43 75.27 52.91 75.27Q52.37 75.27 51.98 75.37Q51.59 75.48 51.39 75.68Q51.18 75.88 51.18 76.16Q51.18 76.47 51.41 76.68Q51.63 76.88 52.01 77.03Q52.39 77.18 52.87 77.3Q53.35 77.42 53.85 77.56Q54.36 77.7 54.83 77.89Q55.31 78.07 55.69 78.35Q56.07 78.64 56.3 79.05Q56.52 79.46 56.52 80.04Q56.52 81.01 56.05 81.6Q55.58 82.2 54.76 82.46Q53.93 82.73 52.88 82.73ZM60.83 82.73Q59.79 82.73 59.1 82.36Q58.41 81.99 58.06 81.23Q57.71 80.46 57.71 79.29Q57.71 78.11 58.06 77.35Q58.42 76.59 59.11 76.22Q59.81 75.85 60.83 75.85Q61.5 75.85 62.02 76.01Q62.55 76.18 62.93 76.51Q63.31 76.84 63.51 77.33Q63.7 77.82 63.7 78.48H62.08Q62.08 78.03 61.94 77.73Q61.8 77.44 61.52 77.28Q61.24 77.13 60.81 77.13Q60.3 77.13 59.98 77.36Q59.66 77.59 59.51 78.05Q59.35 78.5 59.35 79.19V79.4Q59.35 80.08 59.51 80.54Q59.66 81 59.99 81.23Q60.33 81.45 60.87 81.45Q61.29 81.45 61.57 81.3Q61.85 81.15 62 80.84Q62.15 80.53 62.15 80.1H63.7Q63.7 80.72 63.51 81.21Q63.31 81.71 62.94 82.04Q62.56 82.38 62.03 82.56Q61.5 82.73 60.83 82.73ZM65.14 82.58V76H66.49L66.61 77.04H66.7Q66.83 76.72 67.02 76.45Q67.21 76.18 67.5 76.02Q67.79 75.85 68.2 75.85Q68.4 75.85 68.57 75.89Q68.75 75.93 68.83 75.97V77.46H68.34Q67.95 77.46 67.65 77.57Q67.36 77.67 67.15 77.9Q66.95 78.12 66.85 78.45Q66.75 78.79 66.75 79.23V82.58ZM69.91 75.01V73.54H71.52V75.01ZM69.91 82.58V76H71.52V82.58ZM73.28 84.77V76H74.61L74.74 76.88H74.83Q75.16 76.36 75.68 76.11Q76.21 75.85 76.84 75.85Q77.66 75.85 78.25 76.22Q78.83 76.58 79.15 77.34Q79.47 78.11 79.47 79.3Q79.47 80.48 79.15 81.24Q78.82 82 78.25 82.37Q77.67 82.73 76.92 82.73Q76.48 82.73 76.11 82.63Q75.74 82.53 75.45 82.33Q75.17 82.13 74.97 81.83H74.89V84.77ZM76.34 81.37Q76.89 81.37 77.21 81.16Q77.54 80.94 77.68 80.51Q77.82 80.07 77.82 79.41V79.19Q77.82 78.52 77.68 78.08Q77.54 77.64 77.21 77.42Q76.89 77.21 76.34 77.21Q75.84 77.21 75.52 77.44Q75.19 77.68 75.04 78.12Q74.89 78.57 74.89 79.2V79.38Q74.89 79.85 74.98 80.22Q75.06 80.59 75.24 80.84Q75.41 81.1 75.69 81.24Q75.96 81.37 76.34 81.37ZM82.75 82.73Q82.13 82.73 81.77 82.49Q81.4 82.26 81.25 81.88Q81.09 81.49 81.09 81.07V77.29H80.29V76H81.13L81.43 74.15H82.7V76H83.86V77.29H82.7V80.86Q82.7 81.14 82.84 81.29Q82.97 81.44 83.26 81.44H83.86V82.53Q83.73 82.58 83.54 82.62Q83.35 82.67 83.14 82.7Q82.93 82.73 82.75 82.73Z"/>
</svg>
