<svg xmlns="http://www.w3.org/2000/svg" width="104" height="104" viewBox="0 0 104 104" role="img" aria-label="Java">
  <title>Java</title>
  <rect x="0.5" y="0.5" width="103" height="103" rx="8" fill="#f7f6f2" stroke="#d6d3c8"/>
  <g transform="translate(30.0,18) scale(0.34375)"><path fill="#0074BD" d="M47.617 98.12s-4.767 2.774 3.397 3.71c9.892 1.13 14.947.968 25.845-1.092 0 0 2.871 1.795 6.873 3.351-24.439 10.47-55.308-.607-36.115-5.969zm-2.988-13.665s-5.348 3.959 2.823 4.805c10.567 1.091 18.91 1.18 33.354-1.6 0 0 1.993 2.025 5.132 3.131-29.542 8.64-62.446.68-41.309-6.336z"/><path fill="#EA2D2E" d="M69.802 61.271c6.025 6.935-1.58 13.17-1.58 13.17s15.289-7.891 8.269-17.777c-6.559-9.215-11.587-13.792 15.635-29.58 0 .001-42.731 10.67-22.324 34.187z"/><path fill="#0074BD" d="M102.123 108.229s3.529 2.91-3.888 5.159c-14.102 4.272-58.706 5.56-71.094.171-4.451-1.938 3.899-4.625 6.526-5.192 2.739-.593 4.303-.485 4.303-.485-4.953-3.487-32.013 6.85-13.743 9.815 49.821 8.076 90.817-3.637 77.896-9.468zM49.912 70.294s-22.686 5.389-8.033 7.348c6.188.828 18.518.638 30.011-.326 9.39-.789 18.813-2.474 18.813-2.474s-3.308 1.419-5.704 3.053c-23.042 6.061-67.544 3.238-54.731-2.958 10.832-5.239 19.644-4.643 19.644-4.643zm40.697 22.747c23.421-12.167 12.591-23.86 5.032-22.285-1.848.385-2.677.72-2.677.72s.688-1.079 2-1.543c14.953-5.255 26.451 15.503-4.823 23.725 0-.002.359-.327.468-.617z"/><path fill="#EA2D2E" d="M76.491 1.587S89.459 14.563 64.188 34.51c-20.266 16.006-4.621 25.13-.007 35.559-11.831-10.673-20.509-20.07-14.688-28.815C58.041 28.42 81.722 22.195 76.491 1.587z"/><path fill="#0074BD" d="M52.214 126.021c22.476 1.437 57-.8 57.817-11.436 0 0-1.571 4.032-18.577 7.231-19.186 3.612-42.854 3.191-56.887.874 0 .001 2.875 2.381 17.647 3.331z"/></g>
  <path fill="#16150f" d="M41.12 82.73Q40.16 82.73 39.48 82.44Q38.8 82.15 38.44 81.58Q38.09 81.01 38.09 80.15V79.71H39.78V80.15Q39.78 80.72 40.12 81.01Q40.45 81.3 41.12 81.3Q41.76 81.3 42.09 80.86Q42.41 80.43 42.41 79.64V74H44.15V79.64Q44.15 80.67 43.79 81.36Q43.44 82.05 42.76 82.39Q42.09 82.73 41.12 82.73ZM47.72 82.73Q47.42 82.73 47.06 82.66Q46.7 82.59 46.37 82.4Q46.04 82.21 45.83 81.84Q45.62 81.47 45.62 80.88Q45.62 80.2 45.92 79.75Q46.22 79.31 46.77 79.05Q47.32 78.8 48.08 78.69Q48.84 78.59 49.76 78.59V78.07Q49.76 77.78 49.67 77.56Q49.58 77.34 49.35 77.21Q49.12 77.09 48.67 77.09Q48.23 77.09 47.97 77.19Q47.71 77.3 47.61 77.46Q47.51 77.62 47.51 77.8V77.96H45.95Q45.93 77.9 45.93 77.84Q45.93 77.78 45.93 77.7Q45.93 77.13 46.28 76.71Q46.62 76.3 47.23 76.07Q47.85 75.85 48.66 75.85Q49.57 75.85 50.16 76.1Q50.76 76.34 51.07 76.81Q51.37 77.27 51.37 77.95V81Q51.37 81.23 51.5 81.34Q51.64 81.44 51.8 81.44H52.21V82.53Q52.08 82.58 51.83 82.65Q51.59 82.72 51.23 82.72Q50.89 82.72 50.62 82.61Q50.35 82.51 50.17 82.31Q49.99 82.11 49.92 81.84H49.84Q49.63 82.1 49.33 82.3Q49.03 82.51 48.63 82.62Q48.23 82.73 47.72 82.73ZM48.23 81.45Q48.59 81.45 48.88 81.35Q49.17 81.24 49.36 81.04Q49.55 80.85 49.66 80.57Q49.76 80.3 49.76 79.97V79.65Q49.07 79.65 48.5 79.74Q47.93 79.83 47.6 80.06Q47.26 80.29 47.26 80.71Q47.26 80.94 47.37 81.11Q47.48 81.27 47.7 81.36Q47.91 81.45 48.23 81.45ZM54.93 82.58 52.48 76H54.18L55.2 78.89Q55.28 79.1 55.38 79.46Q55.49 79.81 55.6 80.2Q55.71 80.58 55.79 80.89H55.85Q55.93 80.6 56.03 80.23Q56.13 79.85 56.24 79.49Q56.34 79.13 56.43 78.89L57.44 76H59.07L56.61 82.58ZM61.79 82.73Q61.5 82.73 61.13 82.66Q60.77 82.59 60.44 82.4Q60.11 82.21 59.9 81.84Q59.7 81.47 59.7 80.88Q59.7 80.2 60 79.75Q60.3 79.31 60.84 79.05Q61.39 78.8 62.16 78.69Q62.92 78.59 63.84 78.59V78.07Q63.84 77.78 63.74 77.56Q63.65 77.34 63.42 77.21Q63.19 77.09 62.75 77.09Q62.31 77.09 62.05 77.19Q61.79 77.3 61.68 77.46Q61.58 77.62 61.58 77.8V77.96H60.02Q60.01 77.9 60.01 77.84Q60.01 77.78 60.01 77.7Q60.01 77.13 60.35 76.71Q60.69 76.3 61.31 76.07Q61.92 75.85 62.74 75.85Q63.64 75.85 64.24 76.1Q64.84 76.34 65.14 76.81Q65.44 77.27 65.44 77.95V81Q65.44 81.23 65.58 81.34Q65.71 81.44 65.88 81.44H66.28V82.53Q66.16 82.58 65.91 82.65Q65.66 82.72 65.3 82.72Q64.96 82.72 64.7 82.61Q64.43 82.51 64.25 82.31Q64.07 82.11 63.99 81.84H63.92Q63.7 82.1 63.4 82.3Q63.1 82.51 62.71 82.62Q62.31 82.73 61.79 82.73ZM62.3 81.45Q62.67 81.45 62.95 81.35Q63.24 81.24 63.43 81.04Q63.62 80.85 63.73 80.57Q63.84 80.3 63.84 79.97V79.65Q63.14 79.65 62.57 79.74Q62 79.83 61.67 80.06Q61.34 80.29 61.34 80.71Q61.34 80.94 61.45 81.11Q61.55 81.27 61.77 81.36Q61.99 81.45 62.3 81.45Z"/>
</svg>
