<svg xmlns="http://www.w3.org/2000/svg" width="104" height="104" viewBox="0 0 104 104" role="img" aria-label="Kotlin">
  <title>Kotlin</title>
  <rect x="0.5" y="0.5" width="103" height="103" rx="8" fill="#f7f6f2" stroke="#d6d3c8"/>
  <g transform="translate(30.0,18) scale(1.83333)"><path fill="#7F52FF" d="M24 24H0V0h24L12 12Z"/></g>
  <path fill="#16150f" d="M35.43 82.58V74H37.15V77.95L40.89 74H43L39.7 77.48L43.06 82.58H41.02L38.52 78.68L37.15 79.9V82.58ZM47.24 82.73Q46.16 82.73 45.43 82.36Q44.7 81.99 44.32 81.23Q43.95 80.46 43.95 79.29Q43.95 78.11 44.32 77.35Q44.7 76.59 45.43 76.22Q46.16 75.85 47.24 75.85Q48.33 75.85 49.06 76.22Q49.79 76.59 50.16 77.35Q50.53 78.11 50.53 79.29Q50.53 80.46 50.16 81.23Q49.79 81.99 49.06 82.36Q48.33 82.73 47.24 82.73ZM47.24 81.44Q47.83 81.44 48.19 81.22Q48.55 80.99 48.72 80.54Q48.88 80.08 48.88 79.4V79.18Q48.88 78.5 48.72 78.05Q48.55 77.59 48.19 77.37Q47.83 77.14 47.24 77.14Q46.66 77.14 46.3 77.37Q45.94 77.59 45.77 78.05Q45.61 78.5 45.61 79.18V79.4Q45.61 80.08 45.77 80.54Q45.94 80.99 46.3 81.22Q46.66 81.44 47.24 81.44ZM53.81 82.73Q53.19 82.73 52.82 82.49Q52.46 82.26 52.3 81.88Q52.15 81.49 52.15 81.07V77.29H51.35V76H52.19L52.49 74.15H53.75V76H54.91V77.29H53.75V80.86Q53.75 81.14 53.89 81.29Q54.03 81.44 54.32 81.44H54.91V82.53Q54.78 82.58 54.59 82.62Q54.4 82.67 54.19 82.7Q53.99 82.73 53.81 82.73ZM56.19 82.58V73.54H57.8V82.58ZM59.56 75.01V73.54H61.17V75.01ZM59.56 82.58V76H61.17V82.58ZM62.94 82.58V76H64.28L64.41 76.89H64.5Q64.72 76.58 65.03 76.35Q65.34 76.11 65.74 75.98Q66.14 75.85 66.61 75.85Q67.25 75.85 67.73 76.08Q68.22 76.31 68.49 76.82Q68.76 77.32 68.76 78.16V82.58H67.14V78.43Q67.14 78.1 67.06 77.87Q66.98 77.64 66.83 77.5Q66.68 77.36 66.46 77.3Q66.24 77.23 65.97 77.23Q65.57 77.23 65.25 77.43Q64.92 77.62 64.74 77.96Q64.55 78.3 64.55 78.75V82.58Z"/>
</svg>
