<svg xmlns="http://www.w3.org/2000/svg" width="104" height="104" viewBox="0 0 104 104" role="img" aria-label="Liquid">
  <title>Liquid</title>
  <rect x="0.5" y="0.5" width="103" height="103" rx="8" fill="#f7f6f2" stroke="#d6d3c8"/>
  <g transform="translate(30.0,18) scale(1.83333)"><path fill="#7AB55C" d="M15.337 23.979l7.216-1.561s-2.604-17.613-2.625-17.73c-.018-.116-.114-.192-.211-.192s-1.929-.136-1.929-.136-1.275-1.274-1.439-1.411c-.045-.037-.075-.057-.121-.074l-.914 21.104h.023zM11.71 11.305s-.81-.424-1.774-.424c-1.447 0-1.504.906-1.504 1.141 0 1.232 3.24 1.715 3.24 4.629 0 2.295-1.44 3.76-3.406 3.76-2.354 0-3.54-1.465-3.54-1.465l.646-2.086s1.245 1.066 2.28 1.066c.675 0 .975-.545.975-.932 0-1.619-2.654-1.694-2.654-4.359-.034-2.237 1.571-4.416 4.827-4.416 1.257 0 1.875.361 1.875.361l-.945 2.715-.02.01zM11.17.83c.136 0 .271.038.405.135-.984.465-2.064 1.639-2.508 3.992-.656.213-1.293.405-1.889.578C7.697 3.75 8.951.84 11.17.84V.83zm1.235 2.949v.135c-.754.232-1.583.484-2.394.736.466-1.777 1.333-2.645 2.085-2.971.193.501.309 1.176.309 2.1zm.539-2.234c.694.074 1.141.867 1.429 1.755-.349.114-.735.231-1.158.366v-.252c0-.752-.096-1.371-.271-1.871v.002zm2.992 1.289c-.02 0-.06.021-.078.021s-.289.075-.714.21c-.423-1.233-1.176-2.37-2.508-2.37h-.115C12.135.209 11.669 0 11.265 0 8.159 0 6.675 3.877 6.21 5.846c-1.194.365-2.063.636-2.16.674-.675.213-.694.232-.772.87-.075.462-1.83 14.063-1.83 14.063L15.009 24l.927-21.166z"/></g>
  <path fill="#16150f" d="M34.56 82.58V74H36.28V81.1H40.59V82.58ZM41.79 75.01V73.54H43.4V75.01ZM41.79 82.58V76H43.4V82.58ZM49.43 84.77V81.83H49.35Q49.15 82.13 48.86 82.33Q48.58 82.53 48.21 82.63Q47.84 82.73 47.39 82.73Q46.66 82.73 46.08 82.37Q45.5 82 45.17 81.24Q44.85 80.48 44.85 79.3Q44.85 78.11 45.17 77.34Q45.49 76.58 46.08 76.22Q46.67 75.85 47.47 75.85Q48.11 75.85 48.64 76.11Q49.17 76.37 49.49 76.88H49.57L49.71 76H51.04V84.77ZM47.98 81.37Q48.37 81.37 48.64 81.24Q48.92 81.1 49.09 80.84Q49.26 80.59 49.34 80.22Q49.43 79.85 49.43 79.38V79.2Q49.43 78.57 49.28 78.12Q49.12 77.68 48.81 77.44Q48.49 77.21 47.98 77.21Q47.43 77.21 47.11 77.42Q46.78 77.64 46.64 78.08Q46.5 78.52 46.5 79.19V79.41Q46.5 80.07 46.64 80.51Q46.78 80.94 47.11 81.16Q47.43 81.37 47.98 81.37ZM54.91 82.73Q53.94 82.73 53.35 82.2Q52.76 81.67 52.76 80.43V76H54.37V80.15Q54.37 80.49 54.45 80.71Q54.53 80.94 54.68 81.08Q54.83 81.22 55.05 81.29Q55.27 81.35 55.54 81.35Q55.94 81.35 56.26 81.15Q56.59 80.96 56.77 80.61Q56.96 80.27 56.96 79.83V76H58.57V82.58H57.24L57.12 81.69H57.03Q56.8 82 56.49 82.23Q56.18 82.47 55.78 82.6Q55.38 82.73 54.91 82.73ZM60.33 75.01V73.54H61.94V75.01ZM60.33 82.58V76H61.94V82.58ZM66.01 82.73Q65.21 82.73 64.61 82.37Q64.02 82 63.7 81.24Q63.38 80.48 63.38 79.28Q63.38 78.09 63.71 77.34Q64.04 76.58 64.61 76.22Q65.19 75.85 65.93 75.85Q66.37 75.85 66.74 75.95Q67.12 76.05 67.4 76.25Q67.69 76.46 67.89 76.75H67.96V73.54H69.57V82.58H68.24L68.12 81.7H68.03Q67.71 82.22 67.18 82.47Q66.65 82.73 66.01 82.73ZM66.51 81.37Q67.03 81.37 67.34 81.14Q67.66 80.91 67.81 80.47Q67.97 80.03 67.97 79.4V79.22Q67.97 78.75 67.88 78.37Q67.8 77.99 67.62 77.74Q67.44 77.48 67.17 77.35Q66.89 77.21 66.51 77.21Q65.97 77.21 65.64 77.42Q65.32 77.64 65.18 78.08Q65.04 78.52 65.04 79.19V79.41Q65.04 80.07 65.18 80.51Q65.32 80.95 65.64 81.16Q65.97 81.37 66.51 81.37Z"/>
</svg>
