<svg xmlns="http://www.w3.org/2000/svg" width="104" height="104" viewBox="0 0 104 104" role="img" aria-label="Luau">
  <title>Luau</title>
  <rect x="0.5" y="0.5" width="103" height="103" rx="8" fill="#f7f6f2" stroke="#d6d3c8"/>
  <g transform="translate(30.0,18) scale(1.83333)"><path fill="#00A2FF" d="M24 5.072 18.928 24 0 18.928 5.072 0 24 5.072ZM8.984 18.402l-.085.375.61.163 1.005-3.75-.641-.172-.731 2.728c-.26.322-.635.417-1.125.286-.462-.124-.616-.47-.464-1.039l.649-2.422-.641-.172-.654 2.44c-.12.455-.107.828.039 1.117.148.287.422.485.822.592.483.13.888.081 1.216-.146Zm3.818 1.42.672.18.015-.055c-.034-.227-.004-.512.088-.857l.462-1.725c.093-.382.045-.713-.142-.994-.187-.282-.496-.481-.928-.597a1.897 1.897 0 0 0-.793-.05 1.42 1.42 0 0 0-.652.272.912.912 0 0 0-.343.488l.645.172c.044-.164.159-.283.344-.357a.969.969 0 0 1 .622-.02c.261.07.44.19.54.36.098.168.117.364.057.588l-.079.295-.624-.167c-.538-.145-.985-.148-1.342-.01-.353.135-.582.398-.687.789-.086.32-.04.618.14.891.183.272.458.458.828.557.414.11.811.05 1.192-.179-.028.196-.033.336-.015.42Zm-.934-.774a.8.8 0 0 1-.47-.307.606.606 0 0 1-.075-.526c.123-.46.577-.584 1.363-.374l.502.135-.206.77a.978.978 0 0 1-.5.3 1.166 1.166 0 0 1-.614.002ZM21 6.804l-3.786-1.015L16.2 9.575l3.786 1.014L21 6.804ZM3.818 16.832l1.207-4.502-.67-.18-1.352 5.047 3.06.82.146-.544-2.39-.64Zm12.944 3.654-.086.375.61.163 1.005-3.75-.641-.172-.731 2.728c-.26.322-.634.417-1.124.286-.462-.124-.617-.47-.465-1.039l.65-2.422-.642-.172-.654 2.44c-.12.456-.106.828.04 1.117.147.288.421.485.821.592.483.13.889.081 1.217-.146Z"/></g>
  <path fill="#16150f" d="M38.2 82.58V74H39.92V81.1H44.23V82.58ZM47.54 82.73Q46.57 82.73 45.98 82.2Q45.38 81.67 45.38 80.43V76H46.99V80.15Q46.99 80.49 47.07 80.71Q47.15 80.94 47.3 81.08Q47.45 81.22 47.67 81.29Q47.89 81.35 48.16 81.35Q48.57 81.35 48.89 81.15Q49.21 80.96 49.4 80.61Q49.59 80.27 49.59 79.83V76H51.2V82.58H49.87L49.74 81.69H49.65Q49.43 82 49.12 82.23Q48.8 82.47 48.41 82.6Q48.01 82.73 47.54 82.73ZM54.67 82.73Q54.37 82.73 54.01 82.66Q53.65 82.59 53.32 82.4Q52.99 82.21 52.78 81.84Q52.57 81.47 52.57 80.88Q52.57 80.2 52.87 79.75Q53.17 79.31 53.72 79.05Q54.27 78.8 55.03 78.69Q55.79 78.59 56.71 78.59V78.07Q56.71 77.78 56.62 77.56Q56.53 77.34 56.3 77.21Q56.07 77.09 55.62 77.09Q55.18 77.09 54.92 77.19Q54.66 77.3 54.56 77.46Q54.46 77.62 54.46 77.8V77.96H52.9Q52.88 77.9 52.88 77.84Q52.88 77.78 52.88 77.7Q52.88 77.13 53.23 76.71Q53.57 76.3 54.18 76.07Q54.8 75.85 55.61 75.85Q56.52 75.85 57.11 76.1Q57.71 76.34 58.02 76.81Q58.32 77.27 58.32 77.95V81Q58.32 81.23 58.45 81.34Q58.59 81.44 58.75 81.44H59.16V82.53Q59.03 82.58 58.78 82.65Q58.54 82.72 58.18 82.72Q57.84 82.72 57.57 82.61Q57.3 82.51 57.12 82.31Q56.94 82.11 56.87 81.84H56.79Q56.58 82.1 56.28 82.3Q55.98 82.51 55.58 82.62Q55.18 82.73 54.67 82.73ZM55.18 81.45Q55.54 81.45 55.83 81.35Q56.12 81.24 56.31 81.04Q56.5 80.85 56.61 80.57Q56.71 80.3 56.71 79.97V79.65Q56.02 79.65 55.45 79.74Q54.88 79.83 54.55 80.06Q54.21 80.29 54.21 80.71Q54.21 80.94 54.32 81.11Q54.43 81.27 54.65 81.36Q54.86 81.45 55.18 81.45ZM62.29 82.73Q61.32 82.73 60.73 82.2Q60.13 81.67 60.13 80.43V76H61.74V80.15Q61.74 80.49 61.82 80.71Q61.9 80.94 62.05 81.08Q62.2 81.22 62.42 81.29Q62.64 81.35 62.91 81.35Q63.32 81.35 63.64 81.15Q63.96 80.96 64.15 80.61Q64.34 80.27 64.34 79.83V76H65.95V82.58H64.62L64.49 81.69H64.4Q64.18 82 63.87 82.23Q63.55 82.47 63.16 82.6Q62.76 82.73 62.29 82.73Z"/>
</svg>
