<svg xmlns="http://www.w3.org/2000/svg" width="104" height="104" viewBox="0 0 104 104" role="img" aria-label="Metal">
  <title>Metal</title>
  <rect x="0.5" y="0.5" width="103" height="103" rx="8" fill="#f7f6f2" stroke="#d6d3c8"/>
  <g transform="translate(30.0,18) scale(1.83333)"><path fill="#000000" d="M12.152 6.896c-.948 0-2.415-1.078-3.96-1.04-2.04.027-3.91 1.183-4.961 3.014-2.117 3.675-.546 9.103 1.519 12.09 1.013 1.454 2.208 3.09 3.792 3.039 1.52-.065 2.09-.987 3.935-.987 1.831 0 2.35.987 3.96.948 1.637-.026 2.676-1.48 3.676-2.948 1.156-1.688 1.636-3.325 1.662-3.415-.039-.013-3.182-1.221-3.22-4.857-.026-3.04 2.48-4.494 2.597-4.559-1.429-2.09-3.623-2.324-4.39-2.376-2-.156-3.675 1.09-4.61 1.09zM15.53 3.83c.843-1.012 1.4-2.427 1.245-3.83-1.207.052-2.662.805-3.532 1.818-.78.896-1.454 2.338-1.273 3.714 1.338.104 2.715-.688 3.559-1.701"/></g>
  <path fill="#16150f" d="M36.56 82.58V74H39.23L40.54 78.63Q40.61 78.87 40.69 79.19Q40.76 79.5 40.83 79.8Q40.91 80.1 40.95 80.33H41.05Q41.08 80.14 41.13 79.85Q41.18 79.57 41.26 79.24Q41.33 78.92 41.41 78.61L42.71 74H45.35V82.58H43.64V78.35Q43.64 77.78 43.65 77.21Q43.66 76.64 43.68 76.22Q43.7 75.8 43.7 75.71H43.6Q43.57 75.83 43.48 76.2Q43.38 76.58 43.27 77Q43.16 77.43 43.07 77.74L41.69 82.58H40.14L38.75 77.75Q38.68 77.49 38.59 77.12Q38.49 76.76 38.4 76.38Q38.31 75.99 38.24 75.71H38.14Q38.15 76.04 38.16 76.51Q38.18 76.98 38.19 77.47Q38.2 77.95 38.2 78.35V82.58ZM50.15 82.73Q49.08 82.73 48.37 82.36Q47.65 81.99 47.29 81.23Q46.93 80.47 46.93 79.29Q46.93 78.11 47.29 77.35Q47.65 76.59 48.37 76.22Q49.08 75.85 50.13 75.85Q51.1 75.85 51.76 76.21Q52.42 76.57 52.76 77.31Q53.09 78.05 53.09 79.22V79.67H48.58Q48.6 80.27 48.76 80.68Q48.92 81.09 49.26 81.29Q49.6 81.5 50.15 81.5Q50.45 81.5 50.69 81.42Q50.94 81.35 51.13 81.19Q51.31 81.04 51.41 80.81Q51.51 80.57 51.51 80.27H53.09Q53.09 80.89 52.87 81.36Q52.65 81.82 52.26 82.12Q51.86 82.43 51.32 82.58Q50.78 82.73 50.15 82.73ZM48.6 78.59H51.43Q51.43 78.19 51.33 77.91Q51.24 77.63 51.07 77.44Q50.91 77.26 50.67 77.18Q50.44 77.1 50.14 77.1Q49.66 77.1 49.33 77.26Q49.01 77.42 48.84 77.75Q48.66 78.08 48.6 78.59ZM56.36 82.73Q55.74 82.73 55.38 82.49Q55.01 82.26 54.86 81.88Q54.7 81.49 54.7 81.07V77.29H53.9V76H54.75L55.04 74.15H56.31V76H57.47V77.29H56.31V80.86Q56.31 81.14 56.45 81.29Q56.59 81.44 56.87 81.44H57.47V82.53Q57.34 82.58 57.15 82.62Q56.96 82.67 56.75 82.7Q56.54 82.73 56.36 82.73ZM60.45 82.73Q60.16 82.73 59.8 82.66Q59.43 82.59 59.11 82.4Q58.78 82.21 58.57 81.84Q58.36 81.47 58.36 80.88Q58.36 80.2 58.66 79.75Q58.96 79.31 59.51 79.05Q60.05 78.8 60.82 78.69Q61.58 78.59 62.5 78.59V78.07Q62.5 77.78 62.41 77.56Q62.32 77.34 62.09 77.21Q61.86 77.09 61.41 77.09Q60.97 77.09 60.71 77.19Q60.45 77.3 60.35 77.46Q60.24 77.62 60.24 77.8V77.96H58.68Q58.67 77.9 58.67 77.84Q58.67 77.78 58.67 77.7Q58.67 77.13 59.01 76.71Q59.36 76.3 59.97 76.07Q60.59 75.85 61.4 75.85Q62.3 75.85 62.9 76.1Q63.5 76.34 63.8 76.81Q64.11 77.27 64.11 77.95V81Q64.11 81.23 64.24 81.34Q64.38 81.44 64.54 81.44H64.95V82.53Q64.82 82.58 64.57 82.65Q64.33 82.72 63.97 82.72Q63.63 82.72 63.36 82.61Q63.09 82.51 62.91 82.31Q62.73 82.11 62.66 81.84H62.58Q62.36 82.1 62.06 82.3Q61.77 82.51 61.37 82.62Q60.97 82.73 60.45 82.73ZM60.97 81.45Q61.33 81.45 61.62 81.35Q61.9 81.24 62.09 81.04Q62.29 80.85 62.39 80.57Q62.5 80.3 62.5 79.97V79.65Q61.81 79.65 61.24 79.74Q60.67 79.83 60.33 80.06Q60 80.29 60 80.71Q60 80.94 60.11 81.11Q60.22 81.27 60.43 81.36Q60.65 81.45 60.97 81.45ZM65.97 82.58V73.54H67.58V82.58Z"/>
</svg>
