<svg xmlns="http://www.w3.org/2000/svg" width="104" height="104" viewBox="0 0 104 104" role="img" aria-label="Nix">
  <title>Nix</title>
  <rect x="0.5" y="0.5" width="103" height="103" rx="8" fill="#f7f6f2" stroke="#d6d3c8"/>
  <g transform="translate(30.0,18) scale(1.83333)"><path fill="#5277C3" d="M7.352 1.592l-1.364.002L5.32 2.75l1.557 2.713-3.137-.008-1.32 2.34H14.11l-1.353-2.332-3.192-.006-2.214-3.865zm6.175 0l-2.687.025 5.846 10.127 1.341-2.34-1.59-2.765 2.24-3.85-.683-1.182h-1.336l-1.57 2.705-1.56-2.72zm6.887 4.195l-5.846 10.125 2.696-.008 1.601-2.76 4.453.016.682-1.183-.666-1.157-3.13-.008L21.778 8.1l-1.365-2.313zM9.432 8.086l-2.696.008-1.601 2.76-4.453-.016L0 12.02l.666 1.157 3.13.008-1.575 2.71 1.365 2.315L9.432 8.086zM7.33 12.25l-.006.01-.002-.004-1.342 2.34 1.59 2.765-2.24 3.85.684 1.182H7.35l.004-.006h.001l1.567-2.698 1.558 2.72 2.688-.026-.004-.006h.01L7.33 12.25zm2.55 3.93l1.354 2.332 3.192.006 2.215 3.865 1.363-.002.668-1.156-1.557-2.713 3.137.008 1.32-2.34H9.881Z"/></g>
  <path fill="#16150f" d="M43.07 82.58V74H44.69L48.27 78.89Q48.34 78.97 48.43 79.11Q48.53 79.25 48.61 79.39Q48.7 79.52 48.73 79.61L48.79 79.6Q48.79 79.41 48.79 79.24Q48.79 79.06 48.79 78.89V74H50.44V82.58H48.83L45.21 77.62Q45.1 77.47 44.97 77.25Q44.84 77.03 44.78 76.93L44.72 76.94Q44.72 77.11 44.72 77.28Q44.72 77.46 44.72 77.62V82.58ZM52.34 75.01V73.54H53.95V75.01ZM52.34 82.58V76H53.95V82.58ZM55.03 82.58 57.4 79.18 55.2 76H57.14L58.42 78.02H58.5L59.8 76H61.62L59.41 79.15L61.75 82.58H59.83L58.39 80.32H58.31L56.86 82.58Z"/>
</svg>
