<svg xmlns="http://www.w3.org/2000/svg" width="104" height="104" viewBox="0 0 104 104" role="img" aria-label="Objective-C">
  <title>Objective-C</title>
  <rect x="0.5" y="0.5" width="103" height="103" rx="8" fill="#f7f6f2" stroke="#d6d3c8"/>
  <g transform="translate(30.0,18) scale(0.34375)"><g fill="#0b5a9d"><path d="M63.877 125.392c-32.671 0-60.37-27.594-60.627-60.469a59.94 59.94 0 0117.506-42.759 60.939 60.939 0 0143.279-18.36 60.081 60.081 0 0142.647 17.71 60.145 60.145 0 0118.157 42.522c.151 33.604-26.864 61.021-60.469 61.363h-.493zm.19-118.406a57.774 57.774 0 00-41.01 17.427 56.775 56.775 0 00-16.63 40.484c.236 31.159 26.495 57.286 57.43 57.286h.414c31.863-.29 57.504-26.266 57.385-58.128a56.97 56.97 0 00-17.217-40.273A56.7 56.7 0 0064.068 6.986z"/><path d="M16.89 82.383V46.865h8.64v3.183h-4.583v29.218h4.584v3.183l-8.642-.066zM46.213 64.272c0 6.478-3.933 10.167-9.26 10.167s-8.877-4.156-8.877-9.831c0-5.939 3.722-10.121 9.167-10.121s8.97 4.36 8.97 9.785zm-14.415.29c0 3.932 1.973 7.05 5.36 7.05s5.333-3.183 5.333-7.195c0-3.643-1.796-7.083-5.334-7.083s-5.392 3.328-5.392 7.307l.033-.08zM49.205 55.158c1.69-.29 3.407-.434 5.123-.428a9.17 9.17 0 015.537 1.223 4.062 4.062 0 012.006 3.61 4.48 4.48 0 01-3.183 4.183c2.269.46 3.9 2.46 3.9 4.775a5.016 5.016 0 01-1.861 3.978c-1.368 1.21-3.643 1.796-7.162 1.796a33.966 33.966 0 01-4.327-.257l-.033-18.88zm3.499 7.622h1.795c2.433 0 3.801-1.145 3.801-2.782 0-1.638-1.368-2.644-3.61-2.644a9.779 9.779 0 00-2.006.145l.02 5.28zm0 8.878c.618.065 1.243.092 1.86.078 2.263 0 4.262-.861 4.262-3.182s-1.94-3.183-4.373-3.183h-1.75v6.287zM69.54 54.901h3.517v12.554c0 5.334-2.577 7.116-6.365 7.116a9.313 9.313 0 01-2.973-.507l.428-2.834c.703.224 1.44.335 2.183.349 2.006 0 3.183-.921 3.183-4.262l.026-12.416zM83.067 65.357v2.434h-7.32v-2.434h7.32zM100.158 73.63c-1.585.632-3.281.921-4.978.862-6.129 0-9.851-3.834-9.851-9.707-.283-5.353 3.827-9.923 9.18-10.206.375-.02.757-.02 1.131.006a11.112 11.112 0 014.775.862l-.783 2.801a9.476 9.476 0 00-3.788-.75c-3.932 0-6.76 2.467-6.76 7.116 0 4.235 2.499 6.971 6.734 6.971a9.806 9.806 0 003.834-.717l.506 2.762zM111.2 46.766v35.61h-8.641v-3.182h4.583V49.949h-4.583v-3.183h8.64z"/></g></g>
  <path fill="#16150f" d="M21.69 82.73Q20.34 82.73 19.36 82.25Q18.38 81.76 17.86 80.78Q17.34 79.79 17.34 78.29Q17.34 76.78 17.86 75.8Q18.38 74.82 19.36 74.34Q20.34 73.85 21.69 73.85Q23.05 73.85 24.03 74.34Q25 74.82 25.52 75.8Q26.04 76.78 26.04 78.29Q26.04 79.79 25.52 80.78Q25 81.76 24.03 82.25Q23.05 82.73 21.69 82.73ZM21.69 81.3Q22.32 81.3 22.8 81.11Q23.28 80.93 23.61 80.57Q23.94 80.21 24.11 79.68Q24.28 79.15 24.28 78.46V78.14Q24.28 77.44 24.11 76.91Q23.94 76.37 23.61 76.01Q23.28 75.66 22.8 75.47Q22.32 75.29 21.69 75.29Q21.06 75.29 20.58 75.47Q20.1 75.66 19.77 76.01Q19.44 76.37 19.28 76.91Q19.11 77.44 19.11 78.14V78.46Q19.11 79.15 19.28 79.68Q19.44 80.21 19.77 80.57Q20.1 80.93 20.58 81.11Q21.06 81.3 21.69 81.3ZM31.12 82.73Q30.48 82.73 29.96 82.47Q29.43 82.22 29.1 81.7H29.02L28.89 82.58H27.56V73.54H29.17V76.75H29.24Q29.44 76.46 29.73 76.25Q30.02 76.05 30.39 75.95Q30.76 75.85 31.2 75.85Q31.95 75.85 32.52 76.22Q33.1 76.58 33.42 77.34Q33.75 78.09 33.75 79.28Q33.75 80.48 33.43 81.24Q33.11 82 32.52 82.37Q31.94 82.73 31.12 82.73ZM30.62 81.37Q31.17 81.37 31.49 81.16Q31.81 80.95 31.95 80.51Q32.09 80.07 32.09 79.41V79.19Q32.09 78.52 31.95 78.08Q31.81 77.64 31.49 77.42Q31.17 77.21 30.62 77.21Q30.24 77.21 29.96 77.35Q29.69 77.48 29.51 77.74Q29.34 77.99 29.25 78.37Q29.16 78.75 29.16 79.22V79.4Q29.16 80.03 29.32 80.47Q29.47 80.91 29.79 81.14Q30.12 81.37 30.62 81.37ZM35.19 75.01V73.54H36.8V75.01ZM35.12 84.89Q34.94 84.89 34.74 84.86Q34.53 84.84 34.33 84.79Q34.14 84.75 34 84.69V83.61H34.63Q34.9 83.61 35.05 83.46Q35.19 83.31 35.19 83.02V76H36.8V83.15Q36.8 83.59 36.65 83.99Q36.5 84.39 36.14 84.64Q35.77 84.89 35.12 84.89ZM41.43 82.73Q40.37 82.73 39.66 82.36Q38.94 81.99 38.58 81.23Q38.22 80.47 38.22 79.29Q38.22 78.11 38.58 77.35Q38.94 76.59 39.65 76.22Q40.36 75.85 41.42 75.85Q42.39 75.85 43.05 76.21Q43.71 76.57 44.05 77.31Q44.38 78.05 44.38 79.22V79.67H39.86Q39.89 80.27 40.05 80.68Q40.21 81.09 40.55 81.29Q40.89 81.5 41.44 81.5Q41.73 81.5 41.98 81.42Q42.23 81.35 42.41 81.19Q42.6 81.04 42.7 80.81Q42.8 80.57 42.8 80.27H44.38Q44.38 80.89 44.16 81.36Q43.94 81.82 43.54 82.12Q43.15 82.43 42.61 82.58Q42.07 82.73 41.43 82.73ZM39.89 78.59H42.71Q42.71 78.19 42.62 77.91Q42.53 77.63 42.36 77.44Q42.2 77.26 41.96 77.18Q41.73 77.1 41.43 77.1Q40.95 77.1 40.62 77.26Q40.3 77.42 40.12 77.75Q39.95 78.08 39.89 78.59ZM48.62 82.73Q47.58 82.73 46.89 82.36Q46.19 81.99 45.85 81.23Q45.5 80.46 45.5 79.29Q45.5 78.11 45.85 77.35Q46.2 76.59 46.9 76.22Q47.59 75.85 48.62 75.85Q49.29 75.85 49.81 76.01Q50.34 76.18 50.72 76.51Q51.1 76.84 51.29 77.33Q51.49 77.82 51.49 78.48H49.86Q49.86 78.03 49.73 77.73Q49.59 77.44 49.31 77.28Q49.03 77.13 48.59 77.13Q48.09 77.13 47.77 77.36Q47.45 77.59 47.29 78.05Q47.14 78.5 47.14 79.19V79.4Q47.14 80.08 47.29 80.54Q47.45 81 47.78 81.23Q48.11 81.45 48.65 81.45Q49.08 81.45 49.36 81.3Q49.64 81.15 49.79 80.84Q49.94 80.53 49.94 80.1H51.49Q51.49 80.72 51.29 81.21Q51.1 81.71 50.72 82.04Q50.35 82.38 49.82 82.56Q49.29 82.73 48.62 82.73ZM54.76 82.73Q54.14 82.73 53.78 82.49Q53.41 82.26 53.26 81.88Q53.1 81.49 53.1 81.07V77.29H52.3V76H53.15L53.44 74.15H54.71V76H55.87V77.29H54.71V80.86Q54.71 81.14 54.85 81.29Q54.99 81.44 55.27 81.44H55.87V82.53Q55.74 82.58 55.55 82.62Q55.36 82.67 55.15 82.7Q54.94 82.73 54.76 82.73ZM57.14 75.01V73.54H58.75V75.01ZM57.14 82.58V76H58.75V82.58ZM62.21 82.58 59.77 76H61.46L62.49 78.89Q62.56 79.1 62.67 79.46Q62.77 79.81 62.89 80.2Q63 80.58 63.08 80.89H63.14Q63.22 80.6 63.32 80.23Q63.42 79.85 63.52 79.49Q63.63 79.13 63.71 78.89L64.73 76H66.36L63.9 82.58ZM70.26 82.73Q69.2 82.73 68.48 82.36Q67.77 81.99 67.41 81.23Q67.05 80.47 67.05 79.29Q67.05 78.11 67.41 77.35Q67.77 76.59 68.48 76.22Q69.19 75.85 70.25 75.85Q71.22 75.85 71.88 76.21Q72.54 76.57 72.87 77.31Q73.21 78.05 73.21 79.22V79.67H68.69Q68.71 80.27 68.87 80.68Q69.03 81.09 69.37 81.29Q69.71 81.5 70.27 81.5Q70.56 81.5 70.81 81.42Q71.05 81.35 71.24 81.19Q71.42 81.04 71.52 80.81Q71.63 80.57 71.63 80.27H73.21Q73.21 80.89 72.99 81.36Q72.77 81.82 72.37 82.12Q71.97 82.43 71.43 82.58Q70.9 82.73 70.26 82.73ZM68.71 78.59H71.54Q71.54 78.19 71.45 77.91Q71.35 77.63 71.19 77.44Q71.02 77.26 70.79 77.18Q70.55 77.1 70.25 77.1Q69.77 77.1 69.45 77.26Q69.12 77.42 68.95 77.75Q68.78 78.08 68.71 78.59ZM74.34 79.92V78.47H77.5V79.92ZM82.9 82.73Q81.58 82.73 80.64 82.26Q79.7 81.8 79.21 80.82Q78.71 79.83 78.71 78.29Q78.71 76.03 79.82 74.94Q80.92 73.85 82.9 73.85Q83.98 73.85 84.84 74.22Q85.71 74.59 86.21 75.33Q86.72 76.07 86.72 77.2H84.97Q84.97 76.58 84.71 76.16Q84.45 75.73 83.99 75.51Q83.53 75.29 82.92 75.29Q82.1 75.29 81.55 75.61Q81.01 75.94 80.75 76.57Q80.49 77.2 80.49 78.13V78.45Q80.49 79.39 80.75 80.03Q81.01 80.66 81.55 80.98Q82.08 81.3 82.92 81.3Q83.56 81.3 84.04 81.08Q84.51 80.86 84.78 80.44Q85.04 80.01 85.04 79.4H86.72Q86.72 80.53 86.22 81.27Q85.72 82.01 84.86 82.37Q84 82.73 82.9 82.73Z"/>
</svg>
