<svg xmlns="http://www.w3.org/2000/svg" width="104" height="104" viewBox="0 0 104 104" role="img" aria-label="PHP">
  <title>PHP</title>
  <rect x="0.5" y="0.5" width="103" height="103" rx="8" fill="#f7f6f2" stroke="#d6d3c8"/>
  <g transform="translate(30.0,18) scale(1.83333)"><path fill="#777BB4" d="M7.01 10.207h-.944l-.515 2.648h.838c.556 0 .97-.105 1.242-.314.272-.21.455-.559.55-1.049.092-.47.05-.802-.124-.995-.175-.193-.523-.29-1.047-.29zM12 5.688C5.373 5.688 0 8.514 0 12s5.373 6.313 12 6.313S24 15.486 24 12c0-3.486-5.373-6.312-12-6.312zm-3.26 7.451c-.261.25-.575.438-.917.551-.336.108-.765.164-1.285.164H5.357l-.327 1.681H3.652l1.23-6.326h2.65c.797 0 1.378.209 1.744.628.366.418.476 1.002.33 1.752a2.836 2.836 0 0 1-.305.847c-.143.255-.33.49-.561.703zm4.024.715l.543-2.799c.063-.318.039-.536-.068-.651-.107-.116-.336-.174-.687-.174H11.46l-.704 3.625H9.388l1.23-6.327h1.367l-.327 1.682h1.218c.767 0 1.295.134 1.586.401s.378.7.263 1.299l-.572 2.944h-1.389zm7.597-2.265a2.782 2.782 0 0 1-.305.847c-.143.255-.33.49-.561.703a2.44 2.44 0 0 1-.917.551c-.336.108-.765.164-1.286.164h-1.18l-.327 1.682h-1.378l1.23-6.326h2.649c.797 0 1.378.209 1.744.628.366.417.477 1.001.331 1.751zM17.766 10.207h-.943l-.516 2.648h.838c.557 0 .971-.105 1.242-.314.272-.21.455-.559.551-1.049.092-.47.049-.802-.125-.995s-.524-.29-1.047-.29z"/></g>
  <path fill="#16150f" d="M39.73 82.58V74H44.1Q45.03 74 45.65 74.34Q46.27 74.68 46.59 75.3Q46.9 75.91 46.9 76.77Q46.9 77.61 46.58 78.24Q46.25 78.86 45.61 79.21Q44.96 79.55 44.02 79.55H41.45V82.58ZM41.45 78.11H43.89Q44.5 78.11 44.83 77.76Q45.16 77.4 45.16 76.77Q45.16 76.34 45.02 76.05Q44.87 75.76 44.6 75.6Q44.32 75.45 43.89 75.45H41.45ZM48.32 82.58V74H50.04V77.46H53.96V74H55.68V82.58H53.96V78.93H50.04V82.58ZM57.73 82.58V74H62.1Q63.03 74 63.65 74.34Q64.27 74.68 64.59 75.3Q64.9 75.91 64.9 76.77Q64.9 77.61 64.58 78.24Q64.25 78.86 63.61 79.21Q62.96 79.55 62.02 79.55H59.45V82.58ZM59.45 78.11H61.89Q62.5 78.11 62.83 77.76Q63.16 77.4 63.16 76.77Q63.16 76.34 63.02 76.05Q62.87 75.76 62.6 75.6Q62.32 75.45 61.89 75.45H59.45Z"/>
</svg>
