<svg xmlns="http://www.w3.org/2000/svg" width="104" height="104" viewBox="0 0 104 104" role="img" aria-label="Python">
  <title>Python</title>
  <rect x="0.5" y="0.5" width="103" height="103" rx="8" fill="#f7f6f2" stroke="#d6d3c8"/>
  <g transform="translate(30.0,18) scale(1.83333)"><path fill="#3776AB" d="M14.25.18l.9.2.73.26.59.3.45.32.34.34.25.34.16.33.1.3.04.26.02.2-.01.13V8.5l-.05.63-.13.55-.21.46-.26.38-.3.31-.33.25-.35.19-.35.14-.33.1-.3.07-.26.04-.21.02H8.77l-.69.05-.59.14-.5.22-.41.27-.33.32-.27.35-.2.36-.15.37-.1.35-.07.32-.04.27-.02.21v3.06H3.17l-.21-.03-.28-.07-.32-.12-.35-.18-.36-.26-.36-.36-.35-.46-.32-.59-.28-.73-.21-.88-.14-1.05-.05-1.23.06-1.22.16-1.04.24-.87.32-.71.36-.57.4-.44.42-.33.42-.24.4-.16.36-.1.32-.05.24-.01h.16l.06.01h8.16v-.83H6.18l-.01-2.75-.02-.37.05-.34.11-.31.17-.28.25-.26.31-.23.38-.2.44-.18.51-.15.58-.12.64-.1.71-.06.77-.04.84-.02 1.27.05zm-6.3 1.98l-.23.33-.08.41.08.41.23.34.33.22.41.09.41-.09.33-.22.23-.34.08-.41-.08-.41-.23-.33-.33-.22-.41-.09-.41.09zm13.09 3.95l.28.06.32.12.35.18.36.27.36.35.35.47.32.59.28.73.21.88.14 1.04.05 1.23-.06 1.23-.16 1.04-.24.86-.32.71-.36.57-.4.45-.42.33-.42.24-.4.16-.36.09-.32.05-.24.02-.16-.01h-8.22v.82h5.84l.01 2.76.02.36-.05.34-.11.31-.17.29-.25.25-.31.24-.38.2-.44.17-.51.15-.58.13-.64.09-.71.07-.77.04-.84.01-1.27-.04-1.07-.14-.9-.2-.73-.25-.59-.3-.45-.33-.34-.34-.25-.34-.16-.33-.1-.3-.04-.25-.02-.2.01-.13v-5.34l.05-.64.13-.54.21-.46.26-.38.3-.32.33-.24.35-.2.35-.14.33-.1.3-.06.26-.04.21-.02.13-.01h5.84l.69-.05.59-.14.5-.21.41-.28.33-.32.27-.35.2-.36.15-.36.1-.35.07-.32.04-.28.02-.21V6.07h2.09l.14.01zm-6.47 14.25l-.23.33-.08.41.08.41.23.33.33.23.41.08.41-.08.33-.23.23-.33.08-.41-.08-.41-.23-.33-.33-.23-.41-.08-.41.08z"/></g>
  <path fill="#16150f" d="M31.81 82.58V74H36.18Q37.12 74 37.73 74.34Q38.35 74.68 38.67 75.3Q38.98 75.91 38.98 76.77Q38.98 77.61 38.66 78.24Q38.33 78.86 37.69 79.21Q37.05 79.55 36.1 79.55H33.53V82.58ZM33.53 78.11H35.97Q36.58 78.11 36.91 77.76Q37.25 77.4 37.25 76.77Q37.25 76.34 37.1 76.05Q36.96 75.76 36.68 75.6Q36.4 75.45 35.97 75.45H33.53ZM41.16 84.89Q40.7 84.89 40.4 84.82Q40.11 84.75 40.05 84.73V83.61H40.78Q41.06 83.61 41.32 83.47Q41.58 83.33 41.78 83.09Q41.98 82.86 42.07 82.58L39.51 76H41.2L42.39 79.11Q42.47 79.32 42.56 79.65Q42.66 79.97 42.76 80.31Q42.86 80.65 42.92 80.93H42.98Q43.03 80.74 43.1 80.5Q43.16 80.27 43.23 80.02Q43.29 79.77 43.37 79.53Q43.44 79.3 43.49 79.12L44.47 76H46.09L43.88 82.25Q43.69 82.79 43.46 83.27Q43.22 83.74 42.91 84.11Q42.59 84.47 42.17 84.68Q41.74 84.89 41.16 84.89ZM48.94 82.73Q48.32 82.73 47.95 82.49Q47.59 82.26 47.43 81.88Q47.28 81.49 47.28 81.07V77.29H46.48V76H47.32L47.62 74.15H48.89V76H50.05V77.29H48.89V80.86Q48.89 81.14 49.02 81.29Q49.16 81.44 49.45 81.44H50.05V82.53Q49.91 82.58 49.72 82.62Q49.53 82.67 49.32 82.7Q49.12 82.73 48.94 82.73ZM51.32 82.58V73.54H52.93V76.75H53.02Q53.23 76.48 53.52 76.29Q53.81 76.09 54.18 75.97Q54.55 75.85 54.99 75.85Q55.63 75.85 56.11 76.08Q56.6 76.31 56.87 76.82Q57.14 77.32 57.14 78.16V82.58H55.52V78.43Q55.52 78.1 55.44 77.87Q55.36 77.64 55.21 77.5Q55.06 77.36 54.84 77.3Q54.62 77.23 54.35 77.23Q53.95 77.23 53.63 77.43Q53.3 77.62 53.12 77.96Q52.93 78.3 52.93 78.75V82.58ZM61.82 82.73Q60.75 82.73 60.01 82.36Q59.28 81.99 58.91 81.23Q58.53 80.46 58.53 79.29Q58.53 78.11 58.91 77.35Q59.28 76.59 60.01 76.22Q60.75 75.85 61.82 75.85Q62.92 75.85 63.64 76.22Q64.37 76.59 64.74 77.35Q65.12 78.11 65.12 79.29Q65.12 80.46 64.74 81.23Q64.37 81.99 63.64 82.36Q62.92 82.73 61.82 82.73ZM61.82 81.44Q62.41 81.44 62.77 81.22Q63.13 80.99 63.3 80.54Q63.46 80.08 63.46 79.4V79.18Q63.46 78.5 63.3 78.05Q63.13 77.59 62.77 77.37Q62.41 77.14 61.82 77.14Q61.24 77.14 60.88 77.37Q60.52 77.59 60.35 78.05Q60.19 78.5 60.19 79.18V79.4Q60.19 80.08 60.35 80.54Q60.52 80.99 60.88 81.22Q61.24 81.44 61.82 81.44ZM66.56 82.58V76H67.9L68.03 76.89H68.11Q68.34 76.58 68.65 76.35Q68.96 76.11 69.36 75.98Q69.76 75.85 70.23 75.85Q70.87 75.85 71.35 76.08Q71.83 76.31 72.11 76.82Q72.38 77.32 72.38 78.16V82.58H70.76V78.43Q70.76 78.1 70.68 77.87Q70.6 77.64 70.45 77.5Q70.3 77.36 70.08 77.3Q69.86 77.23 69.59 77.23Q69.19 77.23 68.86 77.43Q68.54 77.62 68.35 77.96Q68.17 78.3 68.17 78.75V82.58Z"/>
</svg>
