<svg xmlns="http://www.w3.org/2000/svg" width="104" height="104" viewBox="0 0 104 104" role="img" aria-label="R">
  <title>R</title>
  <rect x="0.5" y="0.5" width="103" height="103" rx="8" fill="#f7f6f2" stroke="#d6d3c8"/>
  <g transform="translate(30.0,18) scale(1.83333)"><path fill="#276DC3" d="M12 2.746c-6.627 0-12 3.599-12 8.037 0 3.897 4.144 7.144 9.64 7.88V16.26c-2.924-.915-4.925-2.755-4.925-4.877 0-3.035 4.084-5.494 9.12-5.494 5.038 0 8.757 1.683 8.757 5.494 0 1.976-.999 3.379-2.662 4.272.09.066.174.128.258.216.169.149.25.363.372.544 2.128-1.45 3.44-3.437 3.44-5.631 0-4.44-5.373-8.038-12-8.038zm-2.111 4.99v13.516l4.093-.002-.002-5.291h1.1c.225 0 .321.066.549.25.272.22.715.982.715.982l2.164 4.063 4.627-.002-2.864-4.826s-.086-.193-.265-.383a2.22 2.22 0 00-.582-.416c-.422-.214-1.149-.434-1.149-.434s3.578-.264 3.578-3.826c0-3.562-3.744-3.63-3.744-3.63zm4.127 2.93l2.478.002s1.149-.062 1.149 1.127c0 1.165-1.149 1.17-1.149 1.17h-2.478zm1.754 6.119c-.494.049-1.012.079-1.54.088v1.807a16.622 16.622 0 002.37-.473l-.471-.891s-.108-.183-.248-.394c-.039-.054-.08-.098-.111-.137z"/></g>
  <path fill="#16150f" d="M48.44 82.58V74H53.02Q53.98 74 54.6 74.33Q55.23 74.66 55.54 75.27Q55.86 75.87 55.86 76.67Q55.86 77.51 55.48 78.15Q55.1 78.8 54.38 79.13L56.15 82.58H54.26L52.71 79.42H50.16V82.58ZM50.16 78.01H52.85Q53.45 78.01 53.78 77.65Q54.1 77.3 54.1 76.68Q54.1 76.28 53.96 76.01Q53.81 75.73 53.54 75.59Q53.26 75.44 52.85 75.44H50.16Z"/>
</svg>
