<svg xmlns="http://www.w3.org/2000/svg" width="104" height="104" viewBox="0 0 104 104" role="img" aria-label="Ruby">
  <title>Ruby</title>
  <rect x="0.5" y="0.5" width="103" height="103" rx="8" fill="#f7f6f2" stroke="#d6d3c8"/>
  <g transform="translate(30.0,18) scale(1.83333)"><path fill="#CC342D" d="M20.156.083c3.033.525 3.893 2.598 3.829 4.77L24 4.822 22.635 22.71 4.89 23.926h.016C3.433 23.864.15 23.729 0 19.139l1.645-3 2.819 6.586.503 1.172 2.805-9.144-.03.007.016-.03 9.255 2.956-1.396-5.431-.99-3.9 8.82-.569-.615-.51L16.5 2.114 20.159.073l-.003.01zM0 19.089zM5.13 5.073c3.561-3.533 8.157-5.621 9.922-3.84 1.762 1.777-.105 6.105-3.673 9.636-3.563 3.532-8.103 5.734-9.864 3.957-1.766-1.777.045-6.217 3.612-9.75l.003-.003z"/></g>
  <path fill="#16150f" d="M37.43 82.58V74H42.02Q42.97 74 43.6 74.33Q44.22 74.66 44.54 75.27Q44.85 75.87 44.85 76.67Q44.85 77.51 44.47 78.15Q44.1 78.8 43.38 79.13L45.14 82.58H43.25L41.7 79.42H39.15V82.58ZM39.15 78.01H41.84Q42.44 78.01 42.77 77.65Q43.1 77.3 43.1 76.68Q43.1 76.28 42.95 76.01Q42.81 75.73 42.53 75.59Q42.25 75.44 41.84 75.44H39.15ZM48.57 82.73Q47.6 82.73 47.01 82.2Q46.42 81.67 46.42 80.43V76H48.02V80.15Q48.02 80.49 48.1 80.71Q48.18 80.94 48.33 81.08Q48.49 81.22 48.7 81.29Q48.92 81.35 49.19 81.35Q49.6 81.35 49.92 81.15Q50.24 80.96 50.43 80.61Q50.62 80.27 50.62 79.83V76H52.23V82.58H50.9L50.77 81.69H50.68Q50.46 82 50.15 82.23Q49.84 82.47 49.44 82.6Q49.04 82.73 48.57 82.73ZM57.55 82.73Q56.91 82.73 56.39 82.47Q55.86 82.22 55.54 81.7H55.45L55.32 82.58H53.99V73.54H55.6V76.75H55.67Q55.87 76.46 56.16 76.25Q56.45 76.05 56.82 75.95Q57.19 75.85 57.63 75.85Q58.38 75.85 58.95 76.22Q59.53 76.58 59.85 77.34Q60.18 78.09 60.18 79.28Q60.18 80.48 59.86 81.24Q59.54 82 58.95 82.37Q58.37 82.73 57.55 82.73ZM57.05 81.37Q57.6 81.37 57.92 81.16Q58.24 80.95 58.38 80.51Q58.52 80.07 58.52 79.41V79.19Q58.52 78.52 58.38 78.08Q58.24 77.64 57.92 77.42Q57.6 77.21 57.05 77.21Q56.67 77.21 56.4 77.35Q56.12 77.48 55.94 77.74Q55.77 77.99 55.68 78.37Q55.6 78.75 55.6 79.22V79.4Q55.6 80.03 55.75 80.47Q55.9 80.91 56.22 81.14Q56.55 81.37 57.05 81.37ZM62.53 84.89Q62.07 84.89 61.77 84.82Q61.48 84.75 61.42 84.73V83.61H62.15Q62.43 83.61 62.69 83.47Q62.95 83.33 63.15 83.09Q63.35 82.86 63.44 82.58L60.88 76H62.57L63.76 79.11Q63.84 79.32 63.93 79.65Q64.03 79.97 64.13 80.31Q64.23 80.65 64.29 80.93H64.35Q64.4 80.74 64.46 80.5Q64.53 80.27 64.6 80.02Q64.66 79.77 64.74 79.53Q64.81 79.3 64.86 79.12L65.84 76H67.46L65.25 82.25Q65.06 82.79 64.82 83.27Q64.59 83.74 64.28 84.11Q63.96 84.47 63.53 84.68Q63.11 84.89 62.53 84.89Z"/>
</svg>
