<svg xmlns="http://www.w3.org/2000/svg" width="104" height="104" viewBox="0 0 104 104" role="img" aria-label="Rust">
  <title>Rust</title>
  <rect x="0.5" y="0.5" width="103" height="103" rx="8" fill="#f7f6f2" stroke="#d6d3c8"/>
  <g transform="translate(30.0,18) scale(1.83333)"><path fill="#000000" d="M23.8346 11.7033l-1.0073-.6236a13.7268 13.7268 0 00-.0283-.2936l.8656-.8069a.3483.3483 0 00-.1154-.578l-1.1066-.414a8.4958 8.4958 0 00-.087-.2856l.6904-.9587a.3462.3462 0 00-.2257-.5446l-1.1663-.1894a9.3574 9.3574 0 00-.1407-.2622l.49-1.0761a.3437.3437 0 00-.0274-.3361.3486.3486 0 00-.3006-.154l-1.1845.0416a6.7444 6.7444 0 00-.1873-.2268l.2723-1.153a.3472.3472 0 00-.417-.4172l-1.1532.2724a14.0183 14.0183 0 00-.2278-.1873l.0415-1.1845a.3442.3442 0 00-.49-.328l-1.076.491c-.0872-.0476-.1742-.0952-.2623-.1407l-.1903-1.1673A.3483.3483 0 0016.256.955l-.9597.6905a8.4867 8.4867 0 00-.2855-.086l-.414-1.1066a.3483.3483 0 00-.5781-.1154l-.8069.8666a9.2936 9.2936 0 00-.2936-.0284L12.2946.1683a.3462.3462 0 00-.5892 0l-.6236 1.0073a13.7383 13.7383 0 00-.2936.0284L9.9803.3374a.3462.3462 0 00-.578.1154l-.4141 1.1065c-.0962.0274-.1903.0567-.2855.086L7.744.955a.3483.3483 0 00-.5447.2258L7.009 2.348a9.3574 9.3574 0 00-.2622.1407l-1.0762-.491a.3462.3462 0 00-.49.328l.0416 1.1845a7.9826 7.9826 0 00-.2278.1873L3.8413 3.425a.3472.3472 0 00-.4171.4171l.2713 1.1531c-.0628.075-.1255.1509-.1863.2268l-1.1845-.0415a.3462.3462 0 00-.328.49l.491 1.0761a9.167 9.167 0 00-.1407.2622l-1.1662.1894a.3483.3483 0 00-.2258.5446l.6904.9587a13.303 13.303 0 00-.087.2855l-1.1065.414a.3483.3483 0 00-.1155.5781l.8656.807a9.2936 9.2936 0 00-.0283.2935l-1.0073.6236a.3442.3442 0 000 .5892l1.0073.6236c.008.0982.0182.1964.0283.2936l-.8656.8079a.3462.3462 0 00.1155.578l1.1065.4141c.0273.0962.0567.1914.087.2855l-.6904.9587a.3452.3452 0 00.2268.5447l1.1662.1893c.0456.088.0922.1751.1408.2622l-.491 1.0762a.3462.3462 0 00.328.49l1.1834-.0415c.0618.0769.1235.1528.1873.2277l-.2713 1.1541a.3462.3462 0 00.4171.4161l1.153-.2713c.075.0638.151.1255.2279.1863l-.0415 1.1845a.3442.3442 0 00.49.327l1.0761-.49c.087.0486.1741.0951.2622.1407l.1903 1.1662a.3483.3483 0 00.5447.2268l.9587-.6904a9.299 9.299 0 00.2855.087l.414 1.1066a.3452.3452 0 00.5781.1154l.8079-.8656c.0972.0111.1954.0203.2936.0294l.6236 1.0073a.3472.3472 0 00.5892 0l.6236-1.0073c.0982-.0091.1964-.0183.2936-.0294l.8069.8656a.3483.3483 0 00.578-.1154l.4141-1.1066a8.4626 8.4626 0 00.2855-.087l.9587.6904a.3452.3452 0 00.5447-.2268l.1903-1.1662c.088-.0456.1751-.0931.2622-.1407l1.0762.49a.3472.3472 0 00.49-.327l-.0415-1.1845a6.7267 6.7267 0 00.2267-.1863l1.1531.2713a.3472.3472 0 00.4171-.416l-.2713-1.1542c.0628-.0749.1255-.1508.1863-.2278l1.1845.0415a.3442.3442 0 00.328-.49l-.49-1.076c.0475-.0872.0951-.1742.1407-.2623l1.1662-.1893a.3483.3483 0 00.2258-.5447l-.6904-.9587.087-.2855 1.1066-.414a.3462.3462 0 00.1154-.5781l-.8656-.8079c.0101-.0972.0202-.1954.0283-.2936l1.0073-.6236a.3442.3442 0 000-.5892zm-6.7413 8.3551a.7138.7138 0 01.2986-1.396.714.714 0 11-.2997 1.396zm-.3422-2.3142a.649.649 0 00-.7715.5l-.3573 1.6685c-1.1035.501-2.3285.7795-3.6193.7795a8.7368 8.7368 0 01-3.6951-.814l-.3574-1.6684a.648.648 0 00-.7714-.499l-1.473.3158a8.7216 8.7216 0 01-.7613-.898h7.1676c.081 0 .1356-.0141.1356-.088v-2.536c0-.074-.0536-.0881-.1356-.0881h-2.0966v-1.6077h2.2677c.2065 0 1.1065.0587 1.394 1.2088.0901.3533.2875 1.5044.4232 1.8729.1346.413.6833 1.2381 1.2685 1.2381h3.5716a.7492.7492 0 00.1296-.0131 8.7874 8.7874 0 01-.8119.9526zM6.8369 20.024a.714.714 0 11-.2997-1.396.714.714 0 01.2997 1.396zM4.1177 8.9972a.7137.7137 0 11-1.304.5791.7137.7137 0 011.304-.579zm-.8352 1.9813l1.5347-.6824a.65.65 0 00.33-.8585l-.3158-.7147h1.2432v5.6025H3.5669a8.7753 8.7753 0 01-.2834-3.348zm6.7343-.5437V8.7836h2.9601c.153 0 1.0792.1772 1.0792.8697 0 .575-.7107.7815-1.2948.7815zm10.7574 1.4862c0 .2187-.008.4363-.0243.651h-.9c-.09 0-.1265.0586-.1265.1477v.413c0 .973-.5487 1.1846-1.0296 1.2382-.4576.0517-.9648-.1913-1.0275-.4717-.2704-1.5186-.7198-1.8436-1.4305-2.4034.8817-.5599 1.799-1.386 1.799-2.4915 0-1.1936-.819-1.9458-1.3769-2.3153-.7825-.5163-1.6491-.6195-1.883-.6195H5.4682a8.7651 8.7651 0 014.907-2.7699l1.0974 1.151a.648.648 0 00.9182.0213l1.227-1.1743a8.7753 8.7753 0 016.0044 4.2762l-.8403 1.8982a.652.652 0 00.33.8585l1.6178.7188c.0283.2875.0425.577.0425.8717zm-9.3006-9.5993a.7128.7128 0 11.984 1.0316.7137.7137 0 01-.984-1.0316zm8.3389 6.71a.7107.7107 0 01.9395-.3625.7137.7137 0 11-.9405.3635z"/></g>
  <path fill="#16150f" d="M39.07 82.58V74H43.66Q44.61 74 45.24 74.33Q45.87 74.66 46.18 75.27Q46.49 75.87 46.49 76.67Q46.49 77.51 46.12 78.15Q45.74 78.8 45.02 79.13L46.79 82.58H44.9L43.35 79.42H40.8V82.58ZM40.8 78.01H43.49Q44.09 78.01 44.41 77.65Q44.74 77.3 44.74 76.68Q44.74 76.28 44.6 76.01Q44.45 75.73 44.17 75.59Q43.9 75.44 43.49 75.44H40.8ZM50.21 82.73Q49.24 82.73 48.65 82.2Q48.06 81.67 48.06 80.43V76H49.67V80.15Q49.67 80.49 49.75 80.71Q49.83 80.94 49.98 81.08Q50.13 81.22 50.35 81.29Q50.57 81.35 50.84 81.35Q51.24 81.35 51.56 81.15Q51.89 80.96 52.07 80.61Q52.26 80.27 52.26 79.83V76H53.87V82.58H52.54L52.42 81.69H52.33Q52.1 82 51.79 82.23Q51.48 82.47 51.08 82.6Q50.68 82.73 50.21 82.73ZM58.24 82.73Q57.53 82.73 56.99 82.58Q56.45 82.42 56.08 82.15Q55.7 81.88 55.51 81.51Q55.32 81.13 55.32 80.68Q55.32 80.62 55.32 80.58Q55.33 80.53 55.33 80.5H56.9Q56.9 80.52 56.9 80.55Q56.9 80.58 56.9 80.6Q56.91 80.93 57.11 81.13Q57.3 81.33 57.62 81.42Q57.94 81.5 58.29 81.5Q58.61 81.5 58.9 81.44Q59.18 81.38 59.38 81.22Q59.57 81.07 59.57 80.82Q59.57 80.51 59.32 80.34Q59.08 80.17 58.67 80.06Q58.27 79.95 57.81 79.83Q57.4 79.72 56.98 79.59Q56.56 79.45 56.22 79.24Q55.89 79.03 55.68 78.69Q55.47 78.35 55.47 77.84Q55.47 77.34 55.69 76.97Q55.9 76.6 56.29 76.35Q56.67 76.11 57.19 75.99Q57.71 75.86 58.31 75.86Q58.9 75.86 59.39 75.99Q59.87 76.11 60.24 76.34Q60.6 76.57 60.81 76.91Q61.01 77.24 61.01 77.65Q61.01 77.74 61 77.82Q61 77.91 60.99 77.92H59.44V77.83Q59.44 77.6 59.29 77.43Q59.15 77.27 58.89 77.17Q58.63 77.08 58.24 77.08Q57.96 77.08 57.74 77.12Q57.52 77.17 57.38 77.25Q57.23 77.34 57.16 77.45Q57.08 77.56 57.08 77.7Q57.08 77.93 57.26 78.06Q57.45 78.19 57.76 78.29Q58.07 78.39 58.44 78.49Q58.89 78.62 59.37 78.74Q59.85 78.87 60.27 79.07Q60.68 79.27 60.94 79.63Q61.19 80 61.19 80.61Q61.19 81.19 60.97 81.6Q60.75 82.01 60.34 82.26Q59.94 82.5 59.41 82.62Q58.87 82.73 58.24 82.73ZM64.45 82.73Q63.83 82.73 63.47 82.49Q63.1 82.26 62.95 81.88Q62.79 81.49 62.79 81.07V77.29H61.99V76H62.83L63.13 74.15H64.4V76H65.56V77.29H64.4V80.86Q64.4 81.14 64.54 81.29Q64.67 81.44 64.96 81.44H65.56V82.53Q65.43 82.58 65.24 82.62Q65.05 82.67 64.84 82.7Q64.63 82.73 64.45 82.73Z"/>
</svg>
