<svg xmlns="http://www.w3.org/2000/svg" width="104" height="104" viewBox="0 0 104 104" role="img" aria-label="Scala">
  <title>Scala</title>
  <rect x="0.5" y="0.5" width="103" height="103" rx="8" fill="#f7f6f2" stroke="#d6d3c8"/>
  <g transform="translate(30.0,18) scale(1.83333)"><path fill="#DC322F" d="M4.589 24c4.537 0 13.81-1.516 14.821-3v-5.729c-.957 1.408-10.284 2.912-14.821 2.912V24zM4.589 16.365c4.537 0 13.81-1.516 14.821-3V7.636c-.957 1.408-10.284 2.912-14.821 2.912v5.817zM4.589 8.729c4.537 0 13.81-1.516 14.821-3V0C18.453 1.408 9.126 2.912 4.589 2.912v5.817z"/></g>
  <path fill="#16150f" d="M39.54 82.73Q38.81 82.73 38.15 82.58Q37.49 82.42 36.98 82.09Q36.47 81.76 36.18 81.26Q35.89 80.76 35.89 80.07Q35.89 80 35.9 79.93Q35.9 79.85 35.9 79.82H37.63Q37.63 79.84 37.62 79.91Q37.61 79.98 37.61 80.03Q37.61 80.43 37.85 80.72Q38.08 81.01 38.52 81.15Q38.96 81.3 39.55 81.3Q39.94 81.3 40.24 81.26Q40.55 81.21 40.77 81.12Q41 81.03 41.15 80.91Q41.3 80.78 41.37 80.63Q41.44 80.47 41.44 80.28Q41.44 79.93 41.21 79.7Q40.99 79.47 40.61 79.32Q40.23 79.16 39.75 79.03Q39.27 78.9 38.77 78.77Q38.26 78.63 37.78 78.44Q37.3 78.25 36.92 77.97Q36.55 77.69 36.32 77.27Q36.1 76.85 36.1 76.26Q36.1 75.65 36.36 75.19Q36.62 74.73 37.1 74.44Q37.57 74.14 38.2 74Q38.83 73.85 39.57 73.85Q40.27 73.85 40.88 74Q41.49 74.14 41.96 74.45Q42.43 74.76 42.69 75.23Q42.96 75.7 42.96 76.35V76.5H41.26V76.39Q41.26 76.04 41.05 75.79Q40.84 75.54 40.46 75.41Q40.08 75.27 39.57 75.27Q39.02 75.27 38.64 75.37Q38.25 75.48 38.04 75.68Q37.84 75.88 37.84 76.16Q37.84 76.47 38.06 76.68Q38.29 76.88 38.67 77.03Q39.05 77.18 39.52 77.3Q40 77.42 40.51 77.56Q41.01 77.7 41.49 77.89Q41.97 78.07 42.35 78.35Q42.73 78.64 42.95 79.05Q43.18 79.46 43.18 80.04Q43.18 81.01 42.7 81.6Q42.23 82.2 41.41 82.46Q40.59 82.73 39.54 82.73ZM47.48 82.73Q46.45 82.73 45.76 82.36Q45.06 81.99 44.71 81.23Q44.37 80.46 44.37 79.29Q44.37 78.11 44.72 77.35Q45.07 76.59 45.77 76.22Q46.46 75.85 47.48 75.85Q48.15 75.85 48.68 76.01Q49.21 76.18 49.59 76.51Q49.97 76.84 50.16 77.33Q50.36 77.82 50.36 78.48H48.73Q48.73 78.03 48.59 77.73Q48.46 77.44 48.18 77.28Q47.89 77.13 47.46 77.13Q46.96 77.13 46.64 77.36Q46.32 77.59 46.16 78.05Q46.01 78.5 46.01 79.19V79.4Q46.01 80.08 46.16 80.54Q46.32 81 46.65 81.23Q46.98 81.45 47.52 81.45Q47.95 81.45 48.23 81.3Q48.51 81.15 48.66 80.84Q48.81 80.53 48.81 80.1H50.36Q50.36 80.72 50.16 81.21Q49.97 81.71 49.59 82.04Q49.22 82.38 48.69 82.56Q48.15 82.73 47.48 82.73ZM53.51 82.73Q53.22 82.73 52.85 82.66Q52.49 82.59 52.16 82.4Q51.83 82.21 51.62 81.84Q51.41 81.47 51.41 80.88Q51.41 80.2 51.71 79.75Q52.02 79.31 52.56 79.05Q53.11 78.8 53.87 78.69Q54.64 78.59 55.55 78.59V78.07Q55.55 77.78 55.46 77.56Q55.37 77.34 55.14 77.21Q54.91 77.09 54.47 77.09Q54.03 77.09 53.77 77.19Q53.51 77.3 53.4 77.46Q53.3 77.62 53.3 77.8V77.96H51.74Q51.73 77.9 51.73 77.84Q51.73 77.78 51.73 77.7Q51.73 77.13 52.07 76.71Q52.41 76.3 53.03 76.07Q53.64 75.85 54.46 75.85Q55.36 75.85 55.96 76.1Q56.56 76.34 56.86 76.81Q57.16 77.27 57.16 77.95V81Q57.16 81.23 57.3 81.34Q57.43 81.44 57.6 81.44H58V82.53Q57.87 82.58 57.63 82.65Q57.38 82.72 57.02 82.72Q56.68 82.72 56.41 82.61Q56.15 82.51 55.97 82.31Q55.79 82.11 55.71 81.84H55.64Q55.42 82.1 55.12 82.3Q54.82 82.51 54.43 82.62Q54.03 82.73 53.51 82.73ZM54.02 81.45Q54.38 81.45 54.67 81.35Q54.96 81.24 55.15 81.04Q55.34 80.85 55.45 80.57Q55.55 80.3 55.55 79.97V79.65Q54.86 79.65 54.29 79.74Q53.72 79.83 53.39 80.06Q53.06 80.29 53.06 80.71Q53.06 80.94 53.17 81.11Q53.27 81.27 53.49 81.36Q53.71 81.45 54.02 81.45ZM59.03 82.58V73.54H60.63V82.58ZM64.11 82.73Q63.82 82.73 63.45 82.66Q63.09 82.59 62.76 82.4Q62.43 82.21 62.22 81.84Q62.01 81.47 62.01 80.88Q62.01 80.2 62.31 79.75Q62.62 79.31 63.16 79.05Q63.71 78.8 64.47 78.69Q65.24 78.59 66.15 78.59V78.07Q66.15 77.78 66.06 77.56Q65.97 77.34 65.74 77.21Q65.51 77.09 65.07 77.09Q64.63 77.09 64.37 77.19Q64.11 77.3 64 77.46Q63.9 77.62 63.9 77.8V77.96H62.34Q62.33 77.9 62.33 77.84Q62.33 77.78 62.33 77.7Q62.33 77.13 62.67 76.71Q63.01 76.3 63.63 76.07Q64.24 75.85 65.06 75.85Q65.96 75.85 66.56 76.1Q67.16 76.34 67.46 76.81Q67.76 77.27 67.76 77.95V81Q67.76 81.23 67.9 81.34Q68.03 81.44 68.2 81.44H68.6V82.53Q68.47 82.58 68.23 82.65Q67.98 82.72 67.62 82.72Q67.28 82.72 67.01 82.61Q66.75 82.51 66.57 82.31Q66.39 82.11 66.31 81.84H66.24Q66.02 82.1 65.72 82.3Q65.42 82.51 65.03 82.62Q64.63 82.73 64.11 82.73ZM64.62 81.45Q64.98 81.45 65.27 81.35Q65.56 81.24 65.75 81.04Q65.94 80.85 66.05 80.57Q66.15 80.3 66.15 79.97V79.65Q65.46 79.65 64.89 79.74Q64.32 79.83 63.99 80.06Q63.66 80.29 63.66 80.71Q63.66 80.94 63.77 81.11Q63.87 81.27 64.09 81.36Q64.31 81.45 64.62 81.45Z"/>
</svg>
