<svg xmlns="http://www.w3.org/2000/svg" width="104" height="104" viewBox="0 0 104 104" role="img" aria-label="Solidity">
  <title>Solidity</title>
  <rect x="0.5" y="0.5" width="103" height="103" rx="8" fill="#f7f6f2" stroke="#d6d3c8"/>
  <g transform="translate(30.0,18) scale(1.83333)"><path fill="#363636" d="M4.409 6.608L7.981.255l3.572 6.353H4.409zM8.411 0l3.569 6.348L15.552 0H8.411zm4.036 17.392l3.572 6.354 3.575-6.354h-7.147zm-.608-10.284h-7.43l3.715 6.605 3.715-6.605zm.428-.25h7.428L15.982.255l-3.715 6.603zM15.589 24l-3.569-6.349L8.448 24h7.141zm-3.856-6.858H4.306l3.712 6.603 3.715-6.603zm.428-.25h7.433l-3.718-6.605-3.715 6.605z"/></g>
  <path fill="#16150f" d="M33.74 82.73Q33.02 82.73 32.35 82.58Q31.69 82.42 31.19 82.09Q30.68 81.76 30.39 81.26Q30.1 80.76 30.1 80.07Q30.1 80 30.1 79.93Q30.11 79.85 30.11 79.82H31.83Q31.83 79.84 31.83 79.91Q31.82 79.98 31.82 80.03Q31.82 80.43 32.05 80.72Q32.28 81.01 32.72 81.15Q33.16 81.3 33.76 81.3Q34.15 81.3 34.45 81.26Q34.76 81.21 34.98 81.12Q35.21 81.03 35.35 80.91Q35.5 80.78 35.57 80.63Q35.64 80.47 35.64 80.28Q35.64 79.93 35.42 79.7Q35.19 79.47 34.81 79.32Q34.43 79.16 33.96 79.03Q33.48 78.9 32.97 78.77Q32.47 78.63 31.99 78.44Q31.51 78.25 31.13 77.97Q30.75 77.69 30.53 77.27Q30.3 76.85 30.3 76.26Q30.3 75.65 30.56 75.19Q30.83 74.73 31.3 74.44Q31.78 74.14 32.41 74Q33.04 73.85 33.78 73.85Q34.47 73.85 35.09 74Q35.7 74.14 36.17 74.45Q36.63 74.76 36.9 75.23Q37.17 75.7 37.17 76.35V76.5H35.47V76.39Q35.47 76.04 35.26 75.79Q35.05 75.54 34.67 75.41Q34.29 75.27 33.78 75.27Q33.23 75.27 32.84 75.37Q32.45 75.48 32.25 75.68Q32.04 75.88 32.04 76.16Q32.04 76.47 32.27 76.68Q32.49 76.88 32.87 77.03Q33.25 77.18 33.73 77.3Q34.21 77.42 34.71 77.56Q35.22 77.7 35.7 77.89Q36.18 78.07 36.55 78.35Q36.93 78.64 37.16 79.05Q37.38 79.46 37.38 80.04Q37.38 81.01 36.91 81.6Q36.44 82.2 35.62 82.46Q34.8 82.73 33.74 82.73ZM41.86 82.73Q40.78 82.73 40.05 82.36Q39.31 81.99 38.94 81.23Q38.57 80.46 38.57 79.29Q38.57 78.11 38.94 77.35Q39.31 76.59 40.05 76.22Q40.78 75.85 41.86 75.85Q42.95 75.85 43.68 76.22Q44.41 76.59 44.78 77.35Q45.15 78.11 45.15 79.29Q45.15 80.46 44.78 81.23Q44.41 81.99 43.68 82.36Q42.95 82.73 41.86 82.73ZM41.86 81.44Q42.45 81.44 42.81 81.22Q43.17 80.99 43.33 80.54Q43.5 80.08 43.5 79.4V79.18Q43.5 78.5 43.33 78.05Q43.17 77.59 42.81 77.37Q42.45 77.14 41.86 77.14Q41.28 77.14 40.92 77.37Q40.56 77.59 40.39 78.05Q40.23 78.5 40.23 79.18V79.4Q40.23 80.08 40.39 80.54Q40.56 80.99 40.92 81.22Q41.28 81.44 41.86 81.44ZM46.59 82.58V73.54H48.2V82.58ZM49.97 75.01V73.54H51.58V75.01ZM49.97 82.58V76H51.58V82.58ZM55.65 82.73Q54.84 82.73 54.25 82.37Q53.66 82 53.34 81.24Q53.02 80.48 53.02 79.28Q53.02 78.09 53.35 77.34Q53.67 76.58 54.25 76.22Q54.83 75.85 55.57 75.85Q56.01 75.85 56.38 75.95Q56.75 76.05 57.04 76.25Q57.33 76.46 57.53 76.75H57.6V73.54H59.21V82.58H57.88L57.75 81.7H57.67Q57.35 82.22 56.82 82.47Q56.29 82.73 55.65 82.73ZM56.15 81.37Q56.66 81.37 56.98 81.14Q57.3 80.91 57.45 80.47Q57.6 80.03 57.6 79.4V79.22Q57.6 78.75 57.52 78.37Q57.43 77.99 57.26 77.74Q57.08 77.48 56.8 77.35Q56.53 77.21 56.15 77.21Q55.6 77.21 55.28 77.42Q54.96 77.64 54.82 78.08Q54.68 78.52 54.68 79.19V79.41Q54.68 80.07 54.82 80.51Q54.96 80.95 55.28 81.16Q55.6 81.37 56.15 81.37ZM60.98 75.01V73.54H62.59V75.01ZM60.98 82.58V76H62.59V82.58ZM66.19 82.73Q65.57 82.73 65.2 82.49Q64.84 82.26 64.68 81.88Q64.53 81.49 64.53 81.07V77.29H63.73V76H64.57L64.87 74.15H66.14V76H67.3V77.29H66.14V80.86Q66.14 81.14 66.27 81.29Q66.41 81.44 66.7 81.44H67.3V82.53Q67.16 82.58 66.97 82.62Q66.78 82.67 66.57 82.7Q66.37 82.73 66.19 82.73ZM69.47 84.89Q69.01 84.89 68.72 84.82Q68.42 84.75 68.37 84.73V83.61H69.09Q69.37 83.61 69.63 83.47Q69.89 83.33 70.09 83.09Q70.29 82.86 70.39 82.58L67.82 76H69.51L70.7 79.11Q70.78 79.32 70.88 79.65Q70.97 79.97 71.07 80.31Q71.17 80.65 71.23 80.93H71.3Q71.35 80.74 71.41 80.5Q71.47 80.27 71.54 80.02Q71.61 79.77 71.68 79.53Q71.75 79.3 71.8 79.12L72.78 76H74.41L72.19 82.25Q72 82.79 71.77 83.27Q71.53 83.74 71.22 84.11Q70.91 84.47 70.48 84.68Q70.05 84.89 69.47 84.89Z"/>
</svg>
