<svg xmlns="http://www.w3.org/2000/svg" width="104" height="104" viewBox="0 0 104 104" role="img" aria-label="Svelte">
  <title>Svelte</title>
  <rect x="0.5" y="0.5" width="103" height="103" rx="8" fill="#f7f6f2" stroke="#d6d3c8"/>
  <g transform="translate(30.0,18) scale(1.83333)"><path fill="#FF3E00" d="M10.354 21.125a4.44 4.44 0 0 1-4.765-1.767 4.109 4.109 0 0 1-.703-3.107 3.898 3.898 0 0 1 .134-.522l.105-.321.287.21a7.21 7.21 0 0 0 2.186 1.092l.208.063-.02.208a1.253 1.253 0 0 0 .226.83 1.337 1.337 0 0 0 1.435.533 1.231 1.231 0 0 0 .343-.15l5.59-3.562a1.164 1.164 0 0 0 .524-.778 1.242 1.242 0 0 0-.211-.937 1.338 1.338 0 0 0-1.435-.533 1.23 1.23 0 0 0-.343.15l-2.133 1.36a4.078 4.078 0 0 1-1.135.499 4.44 4.44 0 0 1-4.765-1.766 4.108 4.108 0 0 1-.702-3.108 3.855 3.855 0 0 1 1.742-2.582l5.589-3.563a4.072 4.072 0 0 1 1.135-.499 4.44 4.44 0 0 1 4.765 1.767 4.109 4.109 0 0 1 .703 3.107 3.943 3.943 0 0 1-.134.522l-.105.321-.286-.21a7.204 7.204 0 0 0-2.187-1.093l-.208-.063.02-.207a1.255 1.255 0 0 0-.226-.831 1.337 1.337 0 0 0-1.435-.532 1.231 1.231 0 0 0-.343.15L8.62 9.368a1.162 1.162 0 0 0-.524.778 1.24 1.24 0 0 0 .211.937 1.338 1.338 0 0 0 1.435.533 1.235 1.235 0 0 0 .344-.151l2.132-1.36a4.067 4.067 0 0 1 1.135-.498 4.44 4.44 0 0 1 4.765 1.766 4.108 4.108 0 0 1 .702 3.108 3.857 3.857 0 0 1-1.742 2.583l-5.589 3.562a4.072 4.072 0 0 1-1.135.499m10.358-17.95C18.484-.015 14.082-.96 10.9 1.068L5.31 4.63a6.412 6.412 0 0 0-2.896 4.295 6.753 6.753 0 0 0 .666 4.336 6.43 6.43 0 0 0-.96 2.396 6.833 6.833 0 0 0 1.168 5.167c2.229 3.19 6.63 4.135 9.812 2.108l5.59-3.562a6.41 6.41 0 0 0 2.896-4.295 6.756 6.756 0 0 0-.665-4.336 6.429 6.429 0 0 0 .958-2.396 6.831 6.831 0 0 0-1.167-5.168Z"/></g>
  <path fill="#16150f" d="M37.51 82.73Q36.78 82.73 36.12 82.58Q35.46 82.42 34.96 82.09Q34.45 81.76 34.16 81.26Q33.87 80.76 33.87 80.07Q33.87 80 33.87 79.93Q33.88 79.85 33.88 79.82H35.6Q35.6 79.84 35.59 79.91Q35.59 79.98 35.59 80.03Q35.59 80.43 35.82 80.72Q36.05 81.01 36.49 81.15Q36.93 81.3 37.52 81.3Q37.91 81.3 38.22 81.26Q38.53 81.21 38.75 81.12Q38.97 81.03 39.12 80.91Q39.27 80.78 39.34 80.63Q39.41 80.47 39.41 80.28Q39.41 79.93 39.19 79.7Q38.96 79.47 38.58 79.32Q38.2 79.16 37.72 79.03Q37.25 78.9 36.74 78.77Q36.24 78.63 35.76 78.44Q35.28 78.25 34.9 77.97Q34.52 77.69 34.3 77.27Q34.07 76.85 34.07 76.26Q34.07 75.65 34.33 75.19Q34.59 74.73 35.07 74.44Q35.55 74.14 36.18 74Q36.81 73.85 37.55 73.85Q38.24 73.85 38.85 74Q39.47 74.14 39.94 74.45Q40.4 74.76 40.67 75.23Q40.94 75.7 40.94 76.35V76.5H39.24V76.39Q39.24 76.04 39.03 75.79Q38.82 75.54 38.44 75.41Q38.06 75.27 37.54 75.27Q37 75.27 36.61 75.37Q36.22 75.48 36.02 75.68Q35.81 75.88 35.81 76.16Q35.81 76.47 36.04 76.68Q36.26 76.88 36.64 77.03Q37.02 77.18 37.5 77.3Q37.98 77.42 38.48 77.56Q38.99 77.7 39.47 77.89Q39.94 78.07 40.32 78.35Q40.7 78.64 40.93 79.05Q41.15 79.46 41.15 80.04Q41.15 81.01 40.68 81.6Q40.21 82.2 39.39 82.46Q38.56 82.73 37.51 82.73ZM44.36 82.58 41.91 76H43.61L44.63 78.89Q44.71 79.1 44.81 79.46Q44.92 79.81 45.03 80.2Q45.14 80.58 45.22 80.89H45.28Q45.36 80.6 45.46 80.23Q45.56 79.85 45.67 79.49Q45.77 79.13 45.86 78.89L46.87 76H48.5L46.04 82.58ZM52.4 82.73Q51.34 82.73 50.63 82.36Q49.91 81.99 49.55 81.23Q49.19 80.47 49.19 79.29Q49.19 78.11 49.55 77.35Q49.91 76.59 50.62 76.22Q51.33 75.85 52.39 75.85Q53.36 75.85 54.02 76.21Q54.68 76.57 55.01 77.31Q55.35 78.05 55.35 79.22V79.67H50.83Q50.86 80.27 51.02 80.68Q51.18 81.09 51.52 81.29Q51.85 81.5 52.41 81.5Q52.7 81.5 52.95 81.42Q53.2 81.35 53.38 81.19Q53.57 81.04 53.67 80.81Q53.77 80.57 53.77 80.27H55.35Q55.35 80.89 55.13 81.36Q54.91 81.82 54.51 82.12Q54.11 82.43 53.58 82.58Q53.04 82.73 52.4 82.73ZM50.86 78.59H53.68Q53.68 78.19 53.59 77.91Q53.5 77.63 53.33 77.44Q53.16 77.26 52.93 77.18Q52.69 77.1 52.4 77.1Q51.92 77.1 51.59 77.26Q51.26 77.42 51.09 77.75Q50.92 78.08 50.86 78.59ZM56.79 82.58V73.54H58.4V82.58ZM61.99 82.73Q61.38 82.73 61.01 82.49Q60.65 82.26 60.49 81.88Q60.33 81.49 60.33 81.07V77.29H59.53V76H60.38L60.67 74.15H61.94V76H63.1V77.29H61.94V80.86Q61.94 81.14 62.08 81.29Q62.22 81.44 62.51 81.44H63.1V82.53Q62.97 82.58 62.78 82.62Q62.59 82.67 62.38 82.7Q62.17 82.73 61.99 82.73ZM67.26 82.73Q66.2 82.73 65.49 82.36Q64.77 81.99 64.41 81.23Q64.05 80.47 64.05 79.29Q64.05 78.11 64.41 77.35Q64.77 76.59 65.48 76.22Q66.2 75.85 67.25 75.85Q68.22 75.85 68.88 76.21Q69.54 76.57 69.88 77.31Q70.21 78.05 70.21 79.22V79.67H65.7Q65.72 80.27 65.88 80.68Q66.04 81.09 66.38 81.29Q66.72 81.5 67.27 81.5Q67.56 81.5 67.81 81.42Q68.06 81.35 68.24 81.19Q68.43 81.04 68.53 80.81Q68.63 80.57 68.63 80.27H70.21Q70.21 80.89 69.99 81.36Q69.77 81.82 69.38 82.12Q68.98 82.43 68.44 82.58Q67.9 82.73 67.26 82.73ZM65.72 78.59H68.54Q68.54 78.19 68.45 77.91Q68.36 77.63 68.19 77.44Q68.03 77.26 67.79 77.18Q67.56 77.1 67.26 77.1Q66.78 77.1 66.45 77.26Q66.13 77.42 65.95 77.75Q65.78 78.08 65.72 78.59Z"/>
</svg>
