<svg xmlns="http://www.w3.org/2000/svg" width="104" height="104" viewBox="0 0 104 104" role="img" aria-label="Swift">
  <title>Swift</title>
  <rect x="0.5" y="0.5" width="103" height="103" rx="8" fill="#f7f6f2" stroke="#d6d3c8"/>
  <g transform="translate(30.0,18) scale(1.83333)"><path fill="#F05138" d="M7.508 0c-.287 0-.573 0-.86.002-.241.002-.483.003-.724.01-.132.003-.263.009-.395.015A9.154 9.154 0 0 0 4.348.15 5.492 5.492 0 0 0 2.85.645 5.04 5.04 0 0 0 .645 2.848c-.245.48-.4.972-.495 1.5-.093.52-.122 1.05-.136 1.576a35.2 35.2 0 0 0-.012.724C0 6.935 0 7.221 0 7.508v8.984c0 .287 0 .575.002.862.002.24.005.481.012.722.014.526.043 1.057.136 1.576.095.528.25 1.02.495 1.5a5.03 5.03 0 0 0 2.205 2.203c.48.244.97.4 1.498.495.52.093 1.05.124 1.576.138.241.007.483.009.724.01.287.002.573.002.86.002h8.984c.287 0 .573 0 .86-.002.241-.001.483-.003.724-.01a10.523 10.523 0 0 0 1.578-.138 5.322 5.322 0 0 0 1.498-.495 5.035 5.035 0 0 0 2.203-2.203c.245-.48.4-.972.495-1.5.093-.52.124-1.05.138-1.576.007-.241.009-.481.01-.722.002-.287.002-.575.002-.862V7.508c0-.287 0-.573-.002-.86a33.662 33.662 0 0 0-.01-.724 10.5 10.5 0 0 0-.138-1.576 5.328 5.328 0 0 0-.495-1.5A5.039 5.039 0 0 0 21.152.645 5.32 5.32 0 0 0 19.654.15a10.493 10.493 0 0 0-1.578-.138 34.98 34.98 0 0 0-.722-.01C17.067 0 16.779 0 16.492 0H7.508zm6.035 3.41c4.114 2.47 6.545 7.162 5.549 11.131-.024.093-.05.181-.076.272l.002.001c2.062 2.538 1.5 5.258 1.236 4.745-1.072-2.086-3.066-1.568-4.088-1.043a6.803 6.803 0 0 1-.281.158l-.02.012-.002.002c-2.115 1.123-4.957 1.205-7.812-.022a12.568 12.568 0 0 1-5.64-4.838c.649.48 1.35.902 2.097 1.252 3.019 1.414 6.051 1.311 8.197-.002C9.651 12.73 7.101 9.67 5.146 7.191a10.628 10.628 0 0 1-1.005-1.384c2.34 2.142 6.038 4.83 7.365 5.576C8.69 8.408 6.208 4.743 6.324 4.86c4.436 4.47 8.528 6.996 8.528 6.996.154.085.27.154.36.213.085-.215.16-.437.224-.668.708-2.588-.09-5.548-1.893-7.992z"/></g>
  <path fill="#16150f" d="M41.26 82.73Q40.53 82.73 39.87 82.58Q39.21 82.42 38.71 82.09Q38.2 81.76 37.91 81.26Q37.62 80.76 37.62 80.07Q37.62 80 37.62 79.93Q37.63 79.85 37.63 79.82H39.35Q39.35 79.84 39.34 79.91Q39.34 79.98 39.34 80.03Q39.34 80.43 39.57 80.72Q39.8 81.01 40.24 81.15Q40.68 81.3 41.27 81.3Q41.66 81.3 41.97 81.26Q42.28 81.21 42.5 81.12Q42.72 81.03 42.87 80.91Q43.02 80.78 43.09 80.63Q43.16 80.47 43.16 80.28Q43.16 79.93 42.94 79.7Q42.71 79.47 42.33 79.32Q41.95 79.16 41.47 79.03Q41 78.9 40.49 78.77Q39.99 78.63 39.51 78.44Q39.03 78.25 38.65 77.97Q38.27 77.69 38.05 77.27Q37.82 76.85 37.82 76.26Q37.82 75.65 38.08 75.19Q38.34 74.73 38.82 74.44Q39.3 74.14 39.93 74Q40.56 73.85 41.3 73.85Q41.99 73.85 42.6 74Q43.22 74.14 43.69 74.45Q44.15 74.76 44.42 75.23Q44.69 75.7 44.69 76.35V76.5H42.99V76.39Q42.99 76.04 42.78 75.79Q42.57 75.54 42.19 75.41Q41.81 75.27 41.29 75.27Q40.75 75.27 40.36 75.37Q39.97 75.48 39.77 75.68Q39.56 75.88 39.56 76.16Q39.56 76.47 39.79 76.68Q40.01 76.88 40.39 77.03Q40.77 77.18 41.25 77.3Q41.73 77.42 42.23 77.56Q42.74 77.7 43.22 77.89Q43.69 78.07 44.07 78.35Q44.45 78.64 44.68 79.05Q44.9 79.46 44.9 80.04Q44.9 81.01 44.43 81.6Q43.96 82.2 43.14 82.46Q42.31 82.73 41.26 82.73ZM47.64 82.58 45.64 76H47.31L48.19 79.44Q48.26 79.71 48.32 79.98Q48.37 80.26 48.41 80.46Q48.45 80.66 48.47 80.72H48.55Q48.6 80.49 48.65 80.23Q48.71 79.96 48.75 79.73Q48.8 79.5 48.82 79.41L49.64 76H51.35L52.21 79.42Q52.26 79.6 52.3 79.84Q52.35 80.08 52.41 80.31Q52.46 80.55 52.49 80.72H52.56Q52.59 80.57 52.64 80.34Q52.69 80.12 52.74 79.88Q52.79 79.65 52.83 79.46L53.7 76H55.25L53.26 82.58H51.57L50.84 79.52Q50.78 79.29 50.72 78.99Q50.65 78.69 50.59 78.4Q50.53 78.1 50.49 77.89H50.42Q50.42 77.98 50.38 78.21Q50.34 78.44 50.27 78.77Q50.2 79.1 50.09 79.52L49.33 82.58ZM56.24 75.01V73.54H57.85V75.01ZM56.24 82.58V76H57.85V82.58ZM59.92 82.58V77.29H58.97V76H59.92V75.21Q59.92 74.74 60.08 74.33Q60.24 73.93 60.62 73.68Q60.99 73.44 61.65 73.44Q61.84 73.44 62.04 73.46Q62.24 73.49 62.42 73.53Q62.6 73.58 62.73 73.63V74.72H62.11Q61.82 74.72 61.68 74.87Q61.53 75.01 61.53 75.3V76H62.73V77.29H61.53V82.58ZM65.52 82.73Q64.9 82.73 64.54 82.49Q64.17 82.26 64.01 81.88Q63.86 81.49 63.86 81.07V77.29H63.06V76H63.9L64.2 74.15H65.47V76H66.63V77.29H65.47V80.86Q65.47 81.14 65.6 81.29Q65.74 81.44 66.03 81.44H66.63V82.53Q66.5 82.58 66.3 82.62Q66.11 82.67 65.91 82.7Q65.7 82.73 65.52 82.73Z"/>
</svg>
