<svg xmlns="http://www.w3.org/2000/svg" width="104" height="104" viewBox="0 0 104 104" role="img" aria-label="Terraform">
  <title>Terraform</title>
  <rect x="0.5" y="0.5" width="103" height="103" rx="8" fill="#f7f6f2" stroke="#d6d3c8"/>
  <g transform="translate(30.0,18) scale(1.83333)"><path fill="#844FBA" d="M1.44 0v7.575l6.561 3.79V3.787zm21.12 4.227l-6.561 3.791v7.574l6.56-3.787zM8.72 4.23v7.575l6.561 3.787V8.018zm0 8.405v7.575L15.28 24v-7.578z"/></g>
  <path fill="#16150f" d="M25.32 82.58V75.47H22.57V74H29.8V75.47H27.04V82.58ZM33.96 82.73Q32.9 82.73 32.18 82.36Q31.47 81.99 31.11 81.23Q30.75 80.47 30.75 79.29Q30.75 78.11 31.11 77.35Q31.47 76.59 32.18 76.22Q32.89 75.85 33.95 75.85Q34.92 75.85 35.58 76.21Q36.24 76.57 36.57 77.31Q36.91 78.05 36.91 79.22V79.67H32.39Q32.41 80.27 32.57 80.68Q32.73 81.09 33.07 81.29Q33.41 81.5 33.97 81.5Q34.26 81.5 34.51 81.42Q34.75 81.35 34.94 81.19Q35.12 81.04 35.22 80.81Q35.33 80.57 35.33 80.27H36.91Q36.91 80.89 36.69 81.36Q36.47 81.82 36.07 82.12Q35.67 82.43 35.13 82.58Q34.6 82.73 33.96 82.73ZM32.41 78.59H35.24Q35.24 78.19 35.15 77.91Q35.05 77.63 34.89 77.44Q34.72 77.26 34.49 77.18Q34.25 77.1 33.95 77.1Q33.47 77.1 33.15 77.26Q32.82 77.42 32.65 77.75Q32.48 78.08 32.41 78.59ZM38.34 82.58V76H39.69L39.81 77.04H39.9Q40.03 76.72 40.22 76.45Q40.41 76.18 40.7 76.02Q40.99 75.85 41.4 75.85Q41.6 75.85 41.77 75.89Q41.95 75.93 42.03 75.97V77.46H41.54Q41.15 77.46 40.85 77.57Q40.56 77.67 40.35 77.9Q40.15 78.12 40.05 78.45Q39.95 78.79 39.95 79.23V82.58ZM43.11 82.58V76H44.45L44.58 77.04H44.66Q44.79 76.72 44.98 76.45Q45.17 76.18 45.46 76.02Q45.75 75.85 46.16 75.85Q46.37 75.85 46.54 75.89Q46.71 75.93 46.8 75.97V77.46H46.3Q45.92 77.46 45.62 77.57Q45.32 77.67 45.12 77.9Q44.91 78.12 44.81 78.45Q44.72 78.79 44.72 79.23V82.58ZM49.58 82.73Q49.28 82.73 48.92 82.66Q48.56 82.59 48.23 82.4Q47.9 82.21 47.69 81.84Q47.48 81.47 47.48 80.88Q47.48 80.2 47.78 79.75Q48.08 79.31 48.63 79.05Q49.18 78.8 49.94 78.69Q50.71 78.59 51.62 78.59V78.07Q51.62 77.78 51.53 77.56Q51.44 77.34 51.21 77.21Q50.98 77.09 50.54 77.09Q50.09 77.09 49.84 77.19Q49.58 77.3 49.47 77.46Q49.37 77.62 49.37 77.8V77.96H47.81Q47.8 77.9 47.8 77.84Q47.8 77.78 47.8 77.7Q47.8 77.13 48.14 76.71Q48.48 76.3 49.1 76.07Q49.71 75.85 50.53 75.85Q51.43 75.85 52.03 76.1Q52.62 76.34 52.93 76.81Q53.23 77.27 53.23 77.95V81Q53.23 81.23 53.37 81.34Q53.5 81.44 53.67 81.44H54.07V82.53Q53.94 82.58 53.7 82.65Q53.45 82.72 53.09 82.72Q52.75 82.72 52.48 82.61Q52.22 82.51 52.04 82.31Q51.86 82.11 51.78 81.84H51.7Q51.49 82.1 51.19 82.3Q50.89 82.51 50.49 82.62Q50.1 82.73 49.58 82.73ZM50.09 81.45Q50.45 81.45 50.74 81.35Q51.03 81.24 51.22 81.04Q51.41 80.85 51.52 80.57Q51.62 80.3 51.62 79.97V79.65Q50.93 79.65 50.36 79.74Q49.79 79.83 49.46 80.06Q49.13 80.29 49.13 80.71Q49.13 80.94 49.23 81.11Q49.34 81.27 49.56 81.36Q49.78 81.45 50.09 81.45ZM55.4 82.58V77.29H54.46V76H55.4V75.21Q55.4 74.74 55.56 74.33Q55.72 73.93 56.1 73.68Q56.48 73.44 57.13 73.44Q57.32 73.44 57.52 73.46Q57.72 73.49 57.9 73.53Q58.08 73.58 58.21 73.63V74.72H57.59Q57.3 74.72 57.16 74.87Q57.01 75.01 57.01 75.3V76H58.21V77.29H57.01V82.58ZM62.14 82.73Q61.06 82.73 60.32 82.36Q59.59 81.99 59.22 81.23Q58.85 80.46 58.85 79.29Q58.85 78.11 59.22 77.35Q59.59 76.59 60.32 76.22Q61.06 75.85 62.14 75.85Q63.23 75.85 63.96 76.22Q64.69 76.59 65.06 77.35Q65.43 78.11 65.43 79.29Q65.43 80.46 65.06 81.23Q64.69 81.99 63.96 82.36Q63.23 82.73 62.14 82.73ZM62.14 81.44Q62.72 81.44 63.08 81.22Q63.44 80.99 63.61 80.54Q63.77 80.08 63.77 79.4V79.18Q63.77 78.5 63.61 78.05Q63.44 77.59 63.08 77.37Q62.72 77.14 62.14 77.14Q61.55 77.14 61.19 77.37Q60.83 77.59 60.67 78.05Q60.5 78.5 60.5 79.18V79.4Q60.5 80.08 60.67 80.54Q60.83 80.99 61.19 81.22Q61.55 81.44 62.14 81.44ZM66.87 82.58V76H68.21L68.34 77.04H68.43Q68.55 76.72 68.74 76.45Q68.93 76.18 69.22 76.02Q69.51 75.85 69.92 75.85Q70.13 75.85 70.3 75.89Q70.47 75.93 70.56 75.97V77.46H70.07Q69.68 77.46 69.38 77.57Q69.08 77.67 68.88 77.9Q68.68 78.12 68.58 78.45Q68.48 78.79 68.48 79.23V82.58ZM71.63 82.58V76H72.97L73.1 76.89H73.19Q73.4 76.58 73.69 76.35Q73.97 76.11 74.33 75.98Q74.69 75.85 75.12 75.85Q75.71 75.85 76.16 76.1Q76.62 76.34 76.87 76.89H76.95Q77.17 76.58 77.46 76.35Q77.75 76.11 78.13 75.98Q78.51 75.85 78.95 75.85Q79.55 75.85 80 76.07Q80.46 76.29 80.72 76.78Q80.98 77.28 80.98 78.09V82.58H79.37V78.4Q79.37 78.07 79.3 77.85Q79.22 77.62 79.1 77.49Q78.97 77.36 78.78 77.3Q78.59 77.23 78.37 77.23Q78.01 77.23 77.73 77.43Q77.44 77.62 77.28 77.96Q77.12 78.3 77.12 78.75V82.58H75.51V78.4Q75.51 78.07 75.43 77.85Q75.36 77.62 75.23 77.49Q75.1 77.36 74.91 77.3Q74.72 77.23 74.5 77.23Q74.15 77.23 73.86 77.43Q73.57 77.62 73.41 77.96Q73.24 78.3 73.24 78.75V82.58Z"/>
</svg>
