<svg xmlns="http://www.w3.org/2000/svg" width="104" height="104" viewBox="0 0 104 104" role="img" aria-label="TypeScript">
  <title>TypeScript</title>
  <rect x="0.5" y="0.5" width="103" height="103" rx="8" fill="#f7f6f2" stroke="#d6d3c8"/>
  <g transform="translate(30.0,18) scale(1.83333)"><path fill="#3178C6" d="M1.125 0C.502 0 0 .502 0 1.125v21.75C0 23.498.502 24 1.125 24h21.75c.623 0 1.125-.502 1.125-1.125V1.125C24 .502 23.498 0 22.875 0zm17.363 9.75c.612 0 1.154.037 1.627.111a6.38 6.38 0 0 1 1.306.34v2.458a3.95 3.95 0 0 0-.643-.361 5.093 5.093 0 0 0-.717-.26 5.453 5.453 0 0 0-1.426-.2c-.3 0-.573.028-.819.086a2.1 2.1 0 0 0-.623.242c-.17.104-.3.229-.393.374a.888.888 0 0 0-.14.49c0 .196.053.373.156.529.104.156.252.304.443.444s.423.276.696.41c.273.135.582.274.926.416.47.197.892.407 1.266.628.374.222.695.473.963.753.268.279.472.598.614.957.142.359.214.776.214 1.253 0 .657-.125 1.21-.373 1.656a3.033 3.033 0 0 1-1.012 1.085 4.38 4.38 0 0 1-1.487.596c-.566.12-1.163.18-1.79.18a9.916 9.916 0 0 1-1.84-.164 5.544 5.544 0 0 1-1.512-.493v-2.63a5.033 5.033 0 0 0 3.237 1.2c.333 0 .624-.03.872-.09.249-.06.456-.144.623-.25.166-.108.29-.234.373-.38a1.023 1.023 0 0 0-.074-1.089 2.12 2.12 0 0 0-.537-.5 5.597 5.597 0 0 0-.807-.444 27.72 27.72 0 0 0-1.007-.436c-.918-.383-1.602-.852-2.053-1.405-.45-.553-.676-1.222-.676-2.005 0-.614.123-1.141.369-1.582.246-.441.58-.804 1.004-1.089a4.494 4.494 0 0 1 1.47-.629 7.536 7.536 0 0 1 1.77-.201zm-15.113.188h9.563v2.166H9.506v9.646H6.789v-9.646H3.375z"/></g>
  <path fill="#16150f" d="M22.42 82.58V75.47H19.68V74H26.9V75.47H24.15V82.58ZM29.08 84.89Q28.62 84.89 28.32 84.82Q28.03 84.75 27.97 84.73V83.61H28.7Q28.98 83.61 29.24 83.47Q29.5 83.33 29.7 83.09Q29.9 82.86 29.99 82.58L27.43 76H29.12L30.31 79.11Q30.39 79.32 30.48 79.65Q30.58 79.97 30.68 80.31Q30.78 80.65 30.84 80.93H30.9Q30.95 80.74 31.01 80.5Q31.08 80.27 31.15 80.02Q31.21 79.77 31.29 79.53Q31.36 79.3 31.41 79.12L32.39 76H34.01L31.8 82.25Q31.61 82.79 31.37 83.27Q31.14 83.74 30.83 84.11Q30.51 84.47 30.08 84.68Q29.66 84.89 29.08 84.89ZM35.03 84.77V76H36.36L36.49 76.88H36.58Q36.9 76.36 37.43 76.11Q37.95 75.85 38.59 75.85Q39.41 75.85 39.99 76.22Q40.58 76.58 40.9 77.34Q41.22 78.11 41.22 79.3Q41.22 80.48 40.89 81.24Q40.56 82 39.99 82.37Q39.42 82.73 38.67 82.73Q38.23 82.73 37.86 82.63Q37.48 82.53 37.2 82.33Q36.91 82.13 36.71 81.83H36.64V84.77ZM38.09 81.37Q38.63 81.37 38.96 81.16Q39.28 80.94 39.42 80.51Q39.56 80.07 39.56 79.41V79.19Q39.56 78.52 39.42 78.08Q39.28 77.64 38.96 77.42Q38.63 77.21 38.09 77.21Q37.59 77.21 37.26 77.44Q36.94 77.68 36.79 78.12Q36.63 78.57 36.63 79.2V79.38Q36.63 79.85 36.72 80.22Q36.8 80.59 36.98 80.84Q37.16 81.1 37.43 81.24Q37.71 81.37 38.09 81.37ZM45.55 82.73Q44.49 82.73 43.78 82.36Q43.06 81.99 42.7 81.23Q42.34 80.47 42.34 79.29Q42.34 78.11 42.7 77.35Q43.06 76.59 43.77 76.22Q44.48 75.85 45.54 75.85Q46.51 75.85 47.17 76.21Q47.83 76.57 48.16 77.31Q48.5 78.05 48.5 79.22V79.67H43.98Q44.01 80.27 44.17 80.68Q44.33 81.09 44.67 81.29Q45 81.5 45.56 81.5Q45.85 81.5 46.1 81.42Q46.35 81.35 46.53 81.19Q46.72 81.04 46.82 80.81Q46.92 80.57 46.92 80.27H48.5Q48.5 80.89 48.28 81.36Q48.06 81.82 47.66 82.12Q47.26 82.43 46.73 82.58Q46.19 82.73 45.55 82.73ZM44.01 78.59H46.83Q46.83 78.19 46.74 77.91Q46.65 77.63 46.48 77.44Q46.31 77.26 46.08 77.18Q45.84 77.1 45.55 77.1Q45.07 77.1 44.74 77.26Q44.41 77.42 44.24 77.75Q44.07 78.08 44.01 78.59ZM53.34 82.73Q52.61 82.73 51.95 82.58Q51.29 82.42 50.78 82.09Q50.27 81.76 49.98 81.26Q49.69 80.76 49.69 80.07Q49.69 80 49.7 79.93Q49.7 79.85 49.7 79.82H51.43Q51.43 79.84 51.42 79.91Q51.41 79.98 51.41 80.03Q51.41 80.43 51.65 80.72Q51.88 81.01 52.32 81.15Q52.76 81.3 53.35 81.3Q53.74 81.3 54.04 81.26Q54.35 81.21 54.57 81.12Q54.8 81.03 54.95 80.91Q55.1 80.78 55.17 80.63Q55.24 80.47 55.24 80.28Q55.24 79.93 55.01 79.7Q54.79 79.47 54.41 79.32Q54.03 79.16 53.55 79.03Q53.07 78.9 52.57 78.77Q52.06 78.63 51.58 78.44Q51.1 78.25 50.72 77.97Q50.35 77.69 50.12 77.27Q49.9 76.85 49.9 76.26Q49.9 75.65 50.16 75.19Q50.42 74.73 50.9 74.44Q51.37 74.14 52 74Q52.63 73.85 53.37 73.85Q54.07 73.85 54.68 74Q55.29 74.14 55.76 74.45Q56.23 74.76 56.49 75.23Q56.76 75.7 56.76 76.35V76.5H55.06V76.39Q55.06 76.04 54.85 75.79Q54.64 75.54 54.26 75.41Q53.88 75.27 53.37 75.27Q52.82 75.27 52.44 75.37Q52.05 75.48 51.84 75.68Q51.64 75.88 51.64 76.16Q51.64 76.47 51.86 76.68Q52.09 76.88 52.47 77.03Q52.85 77.18 53.32 77.3Q53.8 77.42 54.31 77.56Q54.81 77.7 55.29 77.89Q55.77 78.07 56.15 78.35Q56.53 78.64 56.75 79.05Q56.98 79.46 56.98 80.04Q56.98 81.01 56.5 81.6Q56.03 82.2 55.21 82.46Q54.39 82.73 53.34 82.73ZM61.28 82.73Q60.25 82.73 59.56 82.36Q58.86 81.99 58.51 81.23Q58.17 80.46 58.17 79.29Q58.17 78.11 58.52 77.35Q58.87 76.59 59.57 76.22Q60.26 75.85 61.28 75.85Q61.95 75.85 62.48 76.01Q63.01 76.18 63.39 76.51Q63.77 76.84 63.96 77.33Q64.16 77.82 64.16 78.48H62.53Q62.53 78.03 62.39 77.73Q62.26 77.44 61.98 77.28Q61.69 77.13 61.26 77.13Q60.76 77.13 60.44 77.36Q60.12 77.59 59.96 78.05Q59.81 78.5 59.81 79.19V79.4Q59.81 80.08 59.96 80.54Q60.12 81 60.45 81.23Q60.78 81.45 61.32 81.45Q61.75 81.45 62.03 81.3Q62.31 81.15 62.46 80.84Q62.61 80.53 62.61 80.1H64.16Q64.16 80.72 63.96 81.21Q63.77 81.71 63.39 82.04Q63.02 82.38 62.49 82.56Q61.95 82.73 61.28 82.73ZM65.6 82.58V76H66.94L67.07 77.04H67.16Q67.29 76.72 67.47 76.45Q67.66 76.18 67.95 76.02Q68.25 75.85 68.65 75.85Q68.86 75.85 69.03 75.89Q69.2 75.93 69.29 75.97V77.46H68.8Q68.41 77.46 68.11 77.57Q67.81 77.67 67.61 77.9Q67.41 78.12 67.31 78.45Q67.21 78.79 67.21 79.23V82.58ZM70.36 75.01V73.54H71.97V75.01ZM70.36 82.58V76H71.97V82.58ZM73.74 84.77V76H75.07L75.2 76.88H75.29Q75.62 76.36 76.14 76.11Q76.66 75.85 77.3 75.85Q78.12 75.85 78.7 76.22Q79.29 76.58 79.61 77.34Q79.93 78.11 79.93 79.3Q79.93 80.48 79.6 81.24Q79.28 82 78.7 82.37Q78.13 82.73 77.38 82.73Q76.94 82.73 76.57 82.63Q76.2 82.53 75.91 82.33Q75.62 82.13 75.42 81.83H75.35V84.77ZM76.8 81.37Q77.35 81.37 77.67 81.16Q77.99 80.94 78.13 80.51Q78.27 80.07 78.27 79.41V79.19Q78.27 78.52 78.13 78.08Q77.99 77.64 77.67 77.42Q77.35 77.21 76.8 77.21Q76.3 77.21 75.97 77.44Q75.65 77.68 75.5 78.12Q75.35 78.57 75.35 79.2V79.38Q75.35 79.85 75.43 80.22Q75.52 80.59 75.69 80.84Q75.87 81.1 76.15 81.24Q76.42 81.37 76.8 81.37ZM83.21 82.73Q82.59 82.73 82.22 82.49Q81.86 82.26 81.7 81.88Q81.55 81.49 81.55 81.07V77.29H80.75V76H81.59L81.89 74.15H83.15V76H84.31V77.29H83.15V80.86Q83.15 81.14 83.29 81.29Q83.43 81.44 83.72 81.44H84.31V82.53Q84.18 82.58 83.99 82.62Q83.8 82.67 83.59 82.7Q83.39 82.73 83.21 82.73Z"/>
</svg>
