<svg xmlns="http://www.w3.org/2000/svg" width="104" height="104" viewBox="0 0 104 104" role="img" aria-label="VB.NET">
  <title>VB.NET</title>
  <rect x="0.5" y="0.5" width="103" height="103" rx="8" fill="#f7f6f2" stroke="#d6d3c8"/>
  <rect x="30.0" y="18" width="44" height="44" rx="6" fill="#512bd4"/><path fill="#f7f6f2" d="M44.22 45.66 40.12 34.33H42.89L45.27 41.4Q45.33 41.58 45.41 41.85Q45.49 42.12 45.58 42.39Q45.67 42.65 45.73 42.87H45.83Q45.89 42.68 45.97 42.42Q46.05 42.16 46.13 41.9Q46.21 41.63 46.28 41.41L48.64 34.33H51.3L47.2 45.66ZM53.34 45.66V34.33H59.9Q60.79 34.33 61.51 34.68Q62.23 35.03 62.64 35.66Q63.06 36.28 63.06 37.12Q63.06 37.81 62.81 38.34Q62.56 38.87 62.13 39.21Q61.71 39.55 61.19 39.72V39.79Q61.8 39.92 62.3 40.28Q62.79 40.64 63.07 41.21Q63.36 41.78 63.36 42.57Q63.36 43.58 62.9 44.27Q62.43 44.96 61.66 45.31Q60.89 45.66 59.93 45.66ZM55.91 43.6H59.38Q59.97 43.6 60.35 43.26Q60.73 42.92 60.73 42.2Q60.73 41.8 60.57 41.49Q60.41 41.19 60.09 41.02Q59.77 40.85 59.28 40.85H55.91ZM55.91 38.9H59.1Q59.53 38.9 59.83 38.73Q60.12 38.57 60.27 38.28Q60.43 37.98 60.43 37.61Q60.43 36.99 60.08 36.67Q59.73 36.35 59.19 36.35H55.91Z"/>
  <path fill="#16150f" d="M31.5 82.58 28.38 74H30.25L32.21 79.74Q32.26 79.86 32.32 80.04Q32.37 80.21 32.42 80.38Q32.48 80.54 32.52 80.67H32.58Q32.63 80.55 32.67 80.4Q32.72 80.24 32.78 80.07Q32.83 79.9 32.88 79.75L34.83 74H36.62L33.5 82.58ZM37.85 82.58V74H42.61Q43.3 74 43.84 74.27Q44.38 74.53 44.7 75Q45.01 75.48 45.01 76.12Q45.01 76.61 44.82 77.01Q44.63 77.41 44.32 77.68Q44 77.95 43.6 78.08V78.13Q44.07 78.23 44.44 78.51Q44.82 78.79 45.03 79.22Q45.25 79.65 45.25 80.22Q45.25 81.01 44.89 81.54Q44.54 82.06 43.95 82.32Q43.35 82.58 42.62 82.58ZM39.57 81.14H42.35Q42.84 81.14 43.16 80.87Q43.47 80.59 43.47 80.01Q43.47 79.67 43.34 79.42Q43.21 79.17 42.94 79.03Q42.67 78.89 42.25 78.89H39.57ZM39.57 77.49H42.13Q42.49 77.49 42.74 77.36Q42.99 77.22 43.11 76.99Q43.24 76.76 43.24 76.47Q43.24 75.95 42.95 75.69Q42.67 75.43 42.21 75.43H39.57ZM47 82.58V80.9H48.68V82.58ZM50.84 82.58V74H52.45L56.03 78.89Q56.1 78.97 56.19 79.11Q56.29 79.25 56.38 79.39Q56.46 79.52 56.49 79.61L56.56 79.6Q56.55 79.41 56.55 79.24Q56.55 79.06 56.55 78.89V74H58.2V82.58H56.59L52.98 77.62Q52.87 77.47 52.73 77.25Q52.6 77.03 52.54 76.93L52.48 76.94Q52.48 77.11 52.48 77.28Q52.48 77.46 52.48 77.62V82.58ZM60.25 82.58V74H67V75.45H61.98V77.48H66.44V78.92H61.98V81.13H67.08V82.58ZM70.96 82.58V75.47H68.21V74H75.43V75.47H72.68V82.58Z"/>
</svg>
