<svg xmlns="http://www.w3.org/2000/svg" width="104" height="104" viewBox="0 0 104 104" role="img" aria-label="Vue">
  <title>Vue</title>
  <rect x="0.5" y="0.5" width="103" height="103" rx="8" fill="#f7f6f2" stroke="#d6d3c8"/>
  <g transform="translate(30.0,18) scale(1.83333)"><path fill="#4FC08D" d="M24,1.61H14.06L12,5.16,9.94,1.61H0L12,22.39ZM12,14.08,5.16,2.23H9.59L12,6.41l2.41-4.18h4.43Z"/></g>
  <path fill="#16150f" d="M43.6 82.58 40.48 74H42.35L44.31 79.74Q44.36 79.86 44.42 80.04Q44.47 80.21 44.52 80.38Q44.58 80.54 44.62 80.67H44.68Q44.73 80.55 44.77 80.4Q44.82 80.24 44.88 80.07Q44.93 79.9 44.98 79.75L46.93 74H48.72L45.6 82.58ZM51.91 82.73Q50.94 82.73 50.35 82.2Q49.76 81.67 49.76 80.43V76H51.37V80.15Q51.37 80.49 51.45 80.71Q51.53 80.94 51.68 81.08Q51.83 81.22 52.05 81.29Q52.27 81.35 52.54 81.35Q52.94 81.35 53.26 81.15Q53.59 80.96 53.77 80.61Q53.96 80.27 53.96 79.83V76H55.57V82.58H54.24L54.12 81.69H54.03Q53.8 82 53.49 82.23Q53.18 82.47 52.78 82.6Q52.38 82.73 51.91 82.73ZM60.22 82.73Q59.16 82.73 58.44 82.36Q57.73 81.99 57.37 81.23Q57.01 80.47 57.01 79.29Q57.01 78.11 57.37 77.35Q57.73 76.59 58.44 76.22Q59.15 75.85 60.21 75.85Q61.18 75.85 61.84 76.21Q62.5 76.57 62.83 77.31Q63.17 78.05 63.17 79.22V79.67H58.65Q58.68 80.27 58.83 80.68Q58.99 81.09 59.33 81.29Q59.67 81.5 60.23 81.5Q60.52 81.5 60.77 81.42Q61.02 81.35 61.2 81.19Q61.38 81.04 61.49 80.81Q61.59 80.57 61.59 80.27H63.17Q63.17 80.89 62.95 81.36Q62.73 81.82 62.33 82.12Q61.93 82.43 61.4 82.58Q60.86 82.73 60.22 82.73ZM58.68 78.59H61.5Q61.5 78.19 61.41 77.91Q61.32 77.63 61.15 77.44Q60.98 77.26 60.75 77.18Q60.51 77.1 60.22 77.1Q59.74 77.1 59.41 77.26Q59.08 77.42 58.91 77.75Q58.74 78.08 58.68 78.59Z"/>
</svg>
